<?xml version="1.0" encoding="UTF-8"?>
<svg id="Layer_2" data-name="Layer 2" xmlns="http://www.w3.org/2000/svg" viewBox="0 0 639.27 433.93">
  <defs>
    <style>
      .cls-1 {
        letter-spacing: -.04em;
      }

      .cls-2, .cls-3 {
        font-family: Helvetica-Bold, Helvetica;
        font-size: 9px;
        font-weight: 700;
      }

      .cls-2, .cls-4, .cls-5 {
        fill: #fff;
      }

      .cls-3, .cls-6, .cls-7 {
        fill: #262626;
      }

      .cls-8 {
        letter-spacing: -.02em;
      }

      .cls-6, .cls-9, .cls-4, .cls-10 {
        stroke-width: 0px;
      }

      .cls-11 {
        stroke: #d4145a;
      }

      .cls-11, .cls-12, .cls-13 {
        fill: none;
      }

      .cls-11, .cls-12, .cls-13, .cls-7 {
        stroke-miterlimit: 10;
      }

      .cls-12, .cls-7 {
        stroke: #fff;
      }

      .cls-9 {
        fill: #8cc63f;
      }

      .cls-14 {
        letter-spacing: -.07em;
      }

      .cls-15 {
        letter-spacing: -.04em;
      }

      .cls-16 {
        letter-spacing: 0em;
      }

      .cls-17 {
        letter-spacing: -.05em;
      }

      .cls-18 {
        letter-spacing: -.11em;
      }

      .cls-13 {
        stroke: #8cc63f;
      }

      .cls-19 {
        letter-spacing: -.02em;
      }

      .cls-5 {
        font-family: Helvetica, Helvetica;
        font-size: 8px;
      }

      .cls-10 {
        fill: #e5e5e5;
      }
    </style>
  </defs>
  <g id="Layer_1-2" data-name="Layer 1">
    <rect class="cls-6" y="21.6" width="272.3" height="226.02" rx="13.85" ry="13.85"/>
    <rect class="cls-6" y="258.21" width="272.3" height="157.56" rx="11.56" ry="11.56"/>
    <line class="cls-13" x1="37.79" y1="115.02" x2="23.61" y2="115.02"/>
    <line class="cls-13" x1="37.79" y1="219.13" x2="23.61" y2="219.13"/>
    <line class="cls-13" x1="37.79" y1="321.96" x2="23.61" y2="321.96"/>
    <line class="cls-13" x1="37.79" y1="352.44" x2="23.61" y2="352.44"/>
    <line class="cls-13" x1="143.45" y1="387.17" x2="23.61" y2="387.17"/>
    <rect class="cls-10" x="281.79" y="21.6" width="133.29" height="394.17" rx="12.79" ry="12.79"/>
    <rect class="cls-6" x="427.21" y="166.92" width="212.06" height="97.34" rx="8.02" ry="8.02"/>
    <line class="cls-13" x1="302.28" y1="81.35" x2="236.52" y2="81.35"/>
    <line class="cls-13" x1="302.28" y1="115.02" x2="236.52" y2="115.02"/>
    <line class="cls-13" x1="302.28" y1="219.85" x2="236.52" y2="219.85"/>
    <line class="cls-13" x1="438.73" y1="184.96" x2="395.35" y2="184.96"/>
    <line class="cls-13" x1="447.32" y1="220.99" x2="395.35" y2="220.99"/>
    <line class="cls-13" x1="438.73" y1="258.21" x2="395.35" y2="258.21"/>
    <line class="cls-13" x1="438.73" y1="292.89" x2="395.35" y2="292.89"/>
    <line class="cls-13" x1="438.73" y1="330.54" x2="395.35" y2="330.54"/>
    <line class="cls-11" x1="302.28" y1="150.08" x2="236.52" y2="150.08"/>
    <rect class="cls-7" x="143.45" y="104.8" width="93.07" height="19.24" rx="9.02" ry="9.02"/>
    <text class="cls-2" transform="translate(94.66 52.34)"><tspan x="0" y="0">LIBRARIAN OFFICE</tspan></text>
    <text class="cls-3" transform="translate(309.66 52.34)"><tspan x="0" y="0">LIBRA</tspan><tspan class="cls-15" x="27.5" y="0">R</tspan><tspan class="cls-19" x="33.67" y="0">Y</tspan><tspan class="cls-16" x="39.51" y="0" xml:space="preserve"> FLOORS</tspan></text>
    <text class="cls-2" transform="translate(503.99 197.74)"><tspan x="0" y="0">FRONT DESK</tspan></text>
    <text class="cls-3" transform="translate(310.42 9.58)"><tspan x="0" y="0">END USERS SIDE</tspan></text>
    <text class="cls-3" transform="translate(488.24 153.84)"><tspan x="0" y="0">FRONT OFFICE SIDE</tspan></text>
    <text class="cls-3" transform="translate(101.65 7.74)"><tspan x="0" y="0">BACK END SIDE</tspan></text>
    <text class="cls-5" transform="translate(152.75 117.46)"><tspan x="0" y="0">Book License Review</tspan></text>
    <rect class="cls-7" x="143.45" y="71.13" width="93.07" height="19.24" rx="9.02" ry="9.02"/>
    <text class="cls-5" transform="translate(158.53 83.8)"><tspan x="0" y="0">New Book Review</tspan></text>
    <rect class="cls-7" x="302.28" y="71.13" width="93.07" height="19.24" rx="9.02" ry="9.02"/>
    <text class="cls-5" transform="translate(315.58 83.8)"><tspan x="0" y="0">New Book Request</tspan></text>
    <rect class="cls-7" x="302.28" y="104.8" width="93.07" height="19.24" rx="9.02" ry="9.02"/>
    <text class="cls-5" transform="translate(311.13 117.46)"><tspan x="0" y="0">New Book</tspan><tspan class="cls-17" x="36.46" y="0"> </tspan><tspan x="38.25" y="0">Application</tspan></text>
    <rect class="cls-7" x="302.28" y="211.37" width="93.07" height="19.24" rx="9.02" ry="9.02"/>
    <text class="cls-5" transform="translate(316.91 224.03)"><tspan x="0" y="0">Information inquiry</tspan></text>
    <rect class="cls-7" x="447.83" y="211.37" width="93.07" height="19.24" rx="9.02" ry="9.02"/>
    <text class="cls-5" transform="translate(462.46 224.03)"><tspan x="0" y="0">Data Management</tspan></text>
    <text class="cls-5" transform="translate(561.96 224.03)"><tspan x="0" y="0">Database</tspan></text>
    <rect class="cls-7" x="302.28" y="247.02" width="93.07" height="19.24" rx="9.02" ry="9.02"/>
    <text class="cls-5" transform="translate(326.25 259.68)"><tspan x="0" y="0">Collaboration</tspan></text>
    <rect class="cls-7" x="302.28" y="282.67" width="93.07" height="19.24" rx="9.02" ry="9.02"/>
    <text class="cls-5" transform="translate(310.68 295.33)"><tspan x="0" y="0">Search Book Location</tspan></text>
    <rect class="cls-7" x="302.28" y="320.32" width="93.07" height="19.24" rx="9.02" ry="9.02"/>
    <text class="cls-5" transform="translate(320.91 332.98)"><tspan x="0" y="0">Research Paper</tspan></text>
    <rect class="cls-7" x="302.28" y="357.97" width="93.07" height="19.24" rx="9.02" ry="9.02"/>
    <text class="cls-5" transform="translate(321.58 370.64)"><tspan x="0" y="0">Booking Rooms</tspan></text>
    <rect class="cls-7" x="302.28" y="140.46" width="93.07" height="19.24" rx="9.02" ry="9.02"/>
    <text class="cls-5" transform="translate(321.81 153.13)"><tspan x="0" y="0">Problem Report</tspan></text>
    <rect class="cls-7" x="302.28" y="175.72" width="93.07" height="19.24" rx="9.02" ry="9.02"/>
    <text class="cls-5" transform="translate(326.03 188.38)"><tspan class="cls-18" x="0" y="0">T</tspan><tspan x="4" y="0">our Request</tspan></text>
    <rect class="cls-7" x="143.45" y="140.46" width="93.07" height="19.24" rx="9.02" ry="9.02"/>
    <text class="cls-5" transform="translate(164.76 153.13)"><tspan x="0" y="0">Ethical Review</tspan></text>
    <rect class="cls-7" x="37.79" y="104.8" width="93.07" height="19.24" rx="9.02" ry="9.02"/>
    <text class="cls-5" transform="translate(49.99 117.46)"><tspan x="0" y="0">Permission Process</tspan></text>
    <text class="cls-5" transform="translate(54.87 153.13)"><tspan x="0" y="0">External Sources</tspan></text>
    <text class="cls-5" transform="translate(54.87 185.92)"><tspan x="0" y="0">External Sources</tspan></text>
    <rect class="cls-7" x="37.79" y="71.13" width="93.07" height="19.24" rx="9.02" ry="9.02"/>
    <text class="cls-5" transform="translate(47.31 83.8)"><tspan x="0" y="0">Buy or Copy Request</tspan></text>
    <text class="cls-2" transform="translate(77.82 288.94)"><tspan x="0" y="0">BOOK S</tspan><tspan class="cls-8" x="35.5" y="0">T</tspan><tspan x="40.84" y="0">ORAGE (S</tspan><tspan class="cls-14" x="85.35" y="0">T</tspan><tspan x="90.18" y="0">ACKS)</tspan></text>
    <line class="cls-12" x1="143.45" y1="115.02" x2="130.86" y2="115.02"/>
    <line class="cls-12" x1="143.45" y1="218.53" x2="130.86" y2="218.53"/>
    <g>
      <line class="cls-12" x1="131.95" y1="150.08" x2="143.45" y2="150.08"/>
      <polygon class="cls-4" points="135.26 154.17 135.94 153.44 132.33 150.08 135.94 146.72 135.26 145.99 130.86 150.08 135.26 154.17"/>
    </g>
    <g>
      <line class="cls-12" x1="131.95" y1="183.77" x2="143.45" y2="183.77"/>
      <polygon class="cls-4" points="135.26 187.86 135.94 187.12 132.33 183.77 135.94 180.41 135.26 179.68 130.86 183.77 135.26 187.86"/>
    </g>
    <g>
      <line class="cls-12" x1="552.4" y1="221.59" x2="540.9" y2="221.59"/>
      <polygon class="cls-4" points="549.09 217.5 548.41 218.23 552.02 221.59 548.41 224.95 549.09 225.68 553.49 221.59 549.09 217.5"/>
    </g>
    <g>
      <line class="cls-12" x1="541.98" y1="221.59" x2="551.78" y2="221.59"/>
      <polygon class="cls-4" points="545.29 225.68 545.98 224.95 542.36 221.59 545.98 218.23 545.29 217.5 540.9 221.59 545.29 225.68"/>
    </g>
    <g>
      <path class="cls-13" d="M605.75,222.6h16.45c6.46,0,11.69,5.38,11.69,12.01v186.82c0,6.63-5.23,12.01-11.69,12.01H35.31c-6.46,0-11.69-5.38-11.69-12.01V95.91c0-8.04,6.35-14.56,14.18-14.56"/>
      <polygon class="cls-9" points="609.07 226.69 609.75 225.96 606.14 222.61 609.75 219.25 609.07 218.52 604.67 222.61 609.07 226.69"/>
    </g>
    <rect class="cls-7" x="143.45" y="208.91" width="93.07" height="19.24" rx="9.02" ry="9.02"/>
    <rect class="cls-7" x="37.79" y="208.91" width="93.07" height="19.24" rx="9.02" ry="9.02"/>
    <text class="cls-5" transform="translate(158.31 221.58)"><tspan x="0" y="0">Advisory &amp; Mentor</tspan></text>
    <text class="cls-5" transform="translate(71.03 221.58)"><tspan class="cls-1" x="0" y="0">T</tspan><tspan x="4.59" y="0">raining</tspan></text>
    <line class="cls-12" x1="143.45" y1="80.75" x2="130.86" y2="80.75"/>
    <rect class="cls-7" x="37.79" y="311.73" width="93.07" height="19.24" rx="9.02" ry="9.02"/>
    <text class="cls-5" transform="translate(65.54 324.4)"><tspan x="0" y="0">Restacking</tspan></text>
    <rect class="cls-7" x="37.79" y="342.22" width="93.07" height="19.24" rx="9.02" ry="9.02"/>
    <text class="cls-5" transform="translate(67.76 354.88)"><tspan x="0" y="0">Rest</tspan><tspan class="cls-17" x="16.45" y="0"> </tspan><tspan x="18.23" y="0">Area</tspan></text>
    <polyline class="cls-12" points="143.45 352.44 137.16 352.44 130.86 352.44"/>
    <path class="cls-12" d="M130.86,321.96h0c3.48,0,6.29,2.82,6.29,6.29v24.19"/>
    <path class="cls-11" d="M244.06,150.08v26.15c0,4.16-3.37,7.53-7.53,7.53h0"/>
    <path class="cls-11" d="M244.06,345.07v36.65c0,4.16-3.37,7.53-7.53,7.53h0"/>
    <path class="cls-13" d="M294.24,219.85v-27.35c0-4.16,3.37-7.53,7.53-7.53h0"/>
    <path class="cls-13" d="M294.24,219.85v30.85c0,4.16,3.37,7.53,7.53,7.53h0"/>
    <rect class="cls-7" x="143.45" y="173.26" width="93.07" height="19.24" rx="9.02" ry="9.02"/>
    <text class="cls-5" transform="translate(163.43 185.92)"><tspan x="0" y="0">Archive Review</tspan></text>
    <path class="cls-11" d="M302.28,292.89h-49.47c-4.84,0-8.76,3.92-8.76,8.76v43.42c0,4.07-3.3,7.37-7.37,7.37h-.16"/>
    <rect class="cls-7" x="143.45" y="342.22" width="93.07" height="19.24" rx="9.02" ry="9.02"/>
    <text class="cls-5" transform="translate(155.64 354.88)"><tspan x="0" y="0">Shelves Occupancy</tspan></text>
    <rect class="cls-7" x="143.45" y="377.55" width="93.07" height="19.24" rx="9.02" ry="9.02"/>
    <text class="cls-5" transform="translate(158.08 390.21)"><tspan x="0" y="0">Renew Categories</tspan></text>
    <path class="cls-13" d="M302.28,330.54h-31.91c-6.35,0-11.49-5.15-11.49-11.49v-19.6c0-1.72-.48-3.38-1.23-4.93-.41-.85-.64-1.99-.05-3.29.76-1.67,1.28-3.44,1.28-5.28v-58c0-2-.55-3.95-1.52-5.7-.61-1.1-.96-2.64.03-4.48.91-1.69,1.49-3.54,1.49-5.46v-53.07c0-2.24-.56-4.49-1.83-6.34-.96-1.4-1.64-3.45-.02-5.76,1.27-1.82,1.85-4.03,1.85-6.25v-25.86"/>
    <path class="cls-13" d="M395.35,367.59h34.79c4.74,0,8.59-3.85,8.59-8.59v-129.42c0-4.74,3.85-8.59,8.59-8.59h0"/>
    <path class="cls-13" d="M395.35,150.68h34.79c4.74,0,8.59,3.85,8.59,8.59v53.12c0,4.74,3.85,8.59,8.59,8.59"/>
  </g>
</svg>