<?xml version="1.0" encoding="UTF-8"?>
<svg id="Layer_2" data-name="Layer 2" xmlns="http://www.w3.org/2000/svg" viewBox="0 0 468.59 507.26">
  <defs>
    <style>
      @font-face {
        font-family: 'Manrope', 'Gill Sans MT';
      }
      .cls-1 {
        stroke: #efefef;
      }

      .cls-1, .cls-2, .cls-3, .cls-4, .cls-5 {
        fill: none;
        stroke-miterlimit: 10;
        stroke-width: 3px;
      }

      .cls-2 {
        stroke: #92c4ff;
      }

      .cls-6 {
        fill: #92c4ff;
      }

      .cls-6, .cls-7, .cls-8, .cls-9 {
        stroke-width: 0px;
      }

      .cls-7 {
        fill: #e0e0e0;
      }

      .cls-10, .cls-11, .cls-12 {
        font-size: 10px;
      }

      .cls-10, .cls-13 {
        font-family: 'arial';
        font-weight: 700;
      }

      .cls-10, .cls-12 {
        fill: #333;
      }

      .cls-11 {
        fill: #fff;
      }

      .cls-11, .cls-12 {
        font-family: 'arial';
      }

      .cls-8 {
        fill: #2c78e5;
      }

      .cls-13 {
        font-size: 12px;
      }

      .cls-13, .cls-9 {
        fill: #f2f2f2;
      }

      .cls-3 {
        stroke: #f2f2f2;
      }

      .cls-4 {
        stroke: #e0e0e0;
      }

      .cls-5 {
        stroke: #2c78e5;
      }
    </style>
  </defs>
  <g id="Layer_1-2" data-name="Layer 1">
    <rect class="cls-8" x="160.41" y="336.27" width="126.95" height="33.89" rx="16.95" ry="16.95"/>
    <rect class="cls-8" width="126.95" height="93.89" rx="20.8" ry="20.8"/>
    <text class="cls-13" transform="translate(45.65 19.11)"><tspan x="0" y="0">Log in</tspan></text>
    <text class="cls-11" transform="translate(22.5 56.8)"><tspan x="0" y="0">Type-in Password</tspan></text>
    <text class="cls-11" transform="translate(24.14 70.6)"><tspan x="0" y="0">Face Recognition</tspan></text>
    <line class="cls-3" x1="126.95" y1="30.74" y2="30.74"/>
    <text class="cls-13" transform="translate(178.32 357.59)"><tspan x="0" y="0">Navigation Bar</tspan></text>
    <rect class="cls-8" x="340.51" y="167.47" width="126.95" height="33.89" rx="16.95" ry="16.95"/>
    <text class="cls-13" transform="translate(366.12 188.79)"><tspan x="0" y="0">Pop-Up Chat</tspan></text>
    <rect class="cls-8" x="159.64" width="126.95" height="303.58" rx="21.93" ry="21.93"/>
    <text class="cls-13" transform="translate(205.37 19.11)"><tspan x="0" y="0">Home</tspan></text>
    <line class="cls-3" x1="286.59" y1="30.74" x2="159.64" y2="30.74"/>
    <rect class="cls-9" x="171.66" y="43.86" width="103.52" height="52.47" rx="16.65" ry="16.65"/>
    <text class="cls-10" transform="translate(182.66 60.68)"><tspan x="0" y="0">Current Balance</tspan></text>
    <line class="cls-5" x1="169.42" y1="69.9" x2="280.44" y2="69.9"/>
    <text class="cls-12" transform="translate(184.41 87.27)"><tspan x="0" y="0">Transactions List</tspan></text>
    <rect class="cls-9" x="171.66" y="107.63" width="103.52" height="52.47" rx="16.16" ry="16.16"/>
    <text class="cls-10" transform="translate(211.26 124.45)"><tspan x="0" y="0">Zelle</tspan></text>
    <line class="cls-5" x1="169.42" y1="133.67" x2="280.44" y2="133.67"/>
    <text class="cls-12" transform="translate(203.84 151.03)"><tspan x="0" y="0">Transfer</tspan></text>
    <rect class="cls-9" x="171.66" y="171.39" width="103.52" height="26.24" rx="11.43" ry="11.43"/>
    <text class="cls-10" transform="translate(211.45 188.21)"><tspan x="0" y="0">Chat</tspan></text>
    <rect class="cls-9" x="171.66" y="208.93" width="103.52" height="82.63" rx="16.54" ry="16.54"/>
    <text class="cls-10" transform="translate(205.35 225.75)"><tspan x="0" y="0">Budget</tspan></text>
    <line class="cls-5" x1="169.42" y1="234.97" x2="280.44" y2="234.97"/>
    <text class="cls-12" transform="translate(210.33 253.25)"><tspan x="0" y="0">Goals</tspan><tspan x="-23.65" y="12">Expense Details</tspan><tspan x="-25.32" y="24">Prediction Alerts</tspan></text>
    <g>
      <line class="cls-2" x1="126.95" y1="49.2" x2="156.21" y2="49.2"/>
      <polygon class="cls-6" points="150.23 54.28 155.32 49.2 150.23 44.11 154.55 44.11 159.64 49.2 154.55 54.28 150.23 54.28"/>
    </g>
    <g>
      <line class="cls-4" x1="286.59" y1="184.51" x2="337.08" y2="184.51"/>
      <polygon class="cls-7" points="331.11 189.6 336.19 184.51 331.11 179.43 335.42 179.43 340.51 184.51 335.42 189.6 331.11 189.6"/>
    </g>
    <line class="cls-2" x1="223.89" y1="336.27" x2="223.89" y2="303.58"/>
    <rect class="cls-7" x="56.11" y="408.96" width="103.52" height="26.04" rx="13.02" ry="13.02"/>
    <text class="cls-10" transform="translate(77.89 425.78)"><tspan x="0" y="0">Notificaiton</tspan></text>
    <rect class="cls-7" x="171.51" y="408.96" width="103.52" height="26.04" rx="13.02" ry="13.02"/>
    <text class="cls-10" transform="translate(194.55 425.78)"><tspan x="0" y="0">Investment</tspan></text>
    <rect class="cls-7" x="287.05" y="408.96" width="103.52" height="26.04" rx="13.02" ry="13.02"/>
    <text class="cls-10" transform="translate(298.41 425.78)"><tspan x="0" y="0">Other Functions</tspan></text>
    <rect class="cls-7" x="371.84" y="247.57" width="62.74" height="26.04" rx="13.02" ry="13.02"/>
    <text class="cls-10" transform="translate(389.26 264.39)"><tspan x="0" y="0">Helps</tspan></text>
    <rect class="cls-7" x="209.04" y="481.21" width="77.77" height="26.04" rx="12.37" ry="12.37"/>
    <text class="cls-10" transform="translate(228.83 498.03)"><tspan x="0" y="0">Deposit</tspan></text>
    <rect class="cls-7" x="299.93" y="481.21" width="77.77" height="26.04" rx="12.37" ry="12.37"/>
    <text class="cls-10" transform="translate(328.39 498.03)"><tspan x="0" y="0">Bills</tspan></text>
    <rect class="cls-7" x="390.83" y="481.21" width="77.77" height="26.04" rx="12.37" ry="12.37"/>
    <text class="cls-10" transform="translate(408.59 498.03)"><tspan x="0" y="0">Transfer</tspan></text>
    <path class="cls-4" d="M107.88,399.45h0c0-7.64,6.19-13.83,13.83-13.83h185.5s0-173.98,0-173.98v-13.34c0-7.61,6.17-13.78,13.78-13.78h12.95"/>
    <g>
      <path class="cls-4" d="M431.96,477.69v-6.89c0-7.64-6.19-13.83-13.83-13.83h-156.37c-7.64,0-13.83,6.19-13.83,13.83v6.89"/>
      <polygon class="cls-7" points="437.04 471.71 431.96 476.8 426.87 471.71 426.87 476.03 431.96 481.11 437.04 476.03 437.04 471.71"/>
      <polygon class="cls-7" points="242.84 471.71 247.92 476.8 253.01 471.71 253.01 476.03 247.92 481.11 242.84 476.03 242.84 471.71"/>
    </g>
    <line class="cls-4" x1="223.89" y1="409.13" x2="223.89" y2="370.16"/>
    <g>
      <line class="cls-4" x1="403.21" y1="201.36" x2="403.21" y2="244.04"/>
      <polygon class="cls-7" points="398.13 238.07 403.21 243.16 408.3 238.07 408.3 242.39 403.21 247.47 398.13 242.39 398.13 238.07"/>
    </g>
    <g>
      <line class="cls-4" x1="338.82" y1="435" x2="338.82" y2="477.79"/>
      <polygon class="cls-7" points="333.73 471.81 338.82 476.9 343.9 471.81 343.9 476.13 338.82 481.21 333.73 476.13 333.73 471.81"/>
    </g>
    <line class="cls-4" x1="107.88" y1="399.45" x2="107.88" y2="408.96"/>
    <path class="cls-4" d="M338.82,409.13v-9.78c0-7.57-6.13-13.7-13.7-13.7h-17.9"/>
    <line class="cls-1" x1="275.19" y1="184.51" x2="286.59" y2="184.51"/>
  </g>
</svg>