<?xml version="1.0" encoding="UTF-8"?>
<svg id="Layer_2" data-name="Layer 2" xmlns="http://www.w3.org/2000/svg" viewBox="0 0 4746.38 1586.27">
  <defs>
    <style>
      @font-face {
        font-family: 'Manrope', 'Gill Sans MT';
      }
      .cls-1 {
        stroke: #ff6d00;
        stroke-width: 88px;
      }

      .cls-1, .cls-2, .cls-3 {
        fill: none;
        stroke-miterlimit: 10;
      }

      .cls-4 {
        fill: #ffc95c;
      }

      .cls-4, .cls-5, .cls-6, .cls-7, .cls-8, .cls-9, .cls-10, .cls-11, .cls-12 {
        stroke-width: 0px;
      }

      .cls-5 {
        fill: #ff6d00;
      }

      .cls-6 {
        fill: #686868;
      }

      .cls-7 {
        fill: #2d78e5;
      }

      .cls-13, .cls-12 {
        fill: #fff;
      }

      .cls-13, .cls-14 {
        font-family: 'arial';
        font-size: 48px;
        font-weight: 600;
      }

      .cls-2, .cls-3 {
        stroke: #ccc;
        stroke-width: 69px;
      }

      .cls-8 {
        fill: #b5b533;
      }

      .cls-9 {
        fill: #64abff;
      }

      .cls-10 {
        fill: #ffb000;
      }

      .cls-15 {
        fill: #212121;
        font-family: 'arial';
        font-size: 60px;
      }

      .cls-3 {
        stroke-dasharray: 0 0 6.01 6.01;
      }

      .cls-11, .cls-14 {
        fill: #383838;
      }
    </style>
  </defs>
  <g id="Layer_1-2" data-name="Layer 1">
    <g>
      <g>
        <path class="cls-7" d="M1031.02,553.57H361.24c-36.73,0-66.5,29.77-66.5,66.5s29.77,66.5,66.5,66.5h669.78c33.14,0,66-5.32,97.27-15.49l-52.65-123.12c-14.53,3.69-29.52,5.61-44.62,5.61Z"/>
        <path class="cls-9" d="M1505.92,360.81h-58.89c-70.66,0-140.07,24.17-195.45,68.07l-107.73,85.39c-20.14,15.96-43.49,27.4-68.21,33.69l52.65,123.12c35.41-11.52,68.77-29.27,98.18-52.58l107.73-85.39c31.97-25.34,72.04-39.3,112.83-39.3h58.89c36.73,0,66.5-29.77,66.5-66.5s-29.77-66.5-66.5-66.5Z"/>
      </g>
      <path class="cls-10" d="M1511.81,556.16c-77.81,0-141.11-63.3-141.11-141.11s63.3-141.11,141.11-141.11,141.11,63.3,141.11,141.11-63.3,141.11-141.11,141.11Z"/>
      <path class="cls-10" d="M2272.07,880.81h-89.41c-76.87,0-150.91-28.05-208.49-78.99l-296.59-262.41c-33.24-29.41-75.98-45.6-120.36-45.6h-51.3c-36.73,0-66.5-29.77-66.5-66.5s29.77-66.5,66.5-66.5h51.3c76.87,0,150.92,28.05,208.49,78.99l296.59,262.41c33.24,29.41,75.98,45.6,120.36,45.6h89.41c36.73,0,66.5,29.77,66.5,66.5s-29.77,66.5-66.5,66.5Z"/>
      <path class="cls-6" d="M1505.92,493.81c-36.73,0-66.5-29.77-66.5-66.5v-78.07c0-42.45,8.33-83.66,24.75-122.49,15.85-37.47,38.53-71.12,67.4-99.99,28.87-28.88,62.52-51.55,99.99-67.4,38.83-16.42,80.05-24.75,122.49-24.75h1166.41c36.73,0,66.5,29.77,66.5,66.5s-29.77,66.5-66.5,66.5h-1166.41c-100.16,0-181.64,81.48-181.64,181.64v78.07c0,36.73-29.77,66.5-66.5,66.5Z"/>
      <path class="cls-8" d="M4391.35,167.61h-1470.89c-36.73,0-66.5-29.77-66.5-66.5s29.77-66.5,66.5-66.5h1470.89c36.73,0,66.5,29.77,66.5,66.5s-29.77,66.5-66.5,66.5Z"/>
      <circle class="cls-9" cx="1098.96" cy="617.27" r="101.11"/>
      <circle class="cls-7" cx="294.74" cy="620.81" r="101.11"/>
      <g>
        <line class="cls-2" x1="1572.42" y1="415.05" x2="1575.42" y2="415.05"/>
        <path class="cls-3" d="M1581.43,415.05h122.79c106.69,0,204-60.97,250.54-156.97h0c46.54-96,143.85-156.97,250.54-156.97h705.47"/>
        <line class="cls-2" x1="2913.77" y1="101.11" x2="2916.77" y2="101.11"/>
      </g>
      <circle class="cls-6" cx="1511.81" cy="415.05" r="101.11"/>
      <path class="cls-4" d="M2354.3,968.79c-77.81,0-141.11-63.3-141.11-141.11s63.3-141.11,141.11-141.11,141.11,63.3,141.11,141.11-63.3,141.11-141.11,141.11Z"/>
      <path class="cls-4" d="M2359.99,880.81h-32.62c-36.73,0-66.5-29.77-66.5-66.5s29.77-66.5,66.5-66.5h32.62c33.36,0,66.05-9.18,94.53-26.54,28.49-17.36,51.62-42.21,66.91-71.86l229.11-444.35c26.48-51.36,66.56-94.41,115.9-124.48,49.34-30.07,105.97-45.97,163.75-45.97v133c-33.36,0-66.05,9.18-94.53,26.54-28.49,17.36-51.62,42.21-66.91,71.86l-229.11,444.35c-26.48,51.36-66.56,94.41-115.9,124.48-49.34,30.07-105.97,45.97-163.75,45.97Z"/>
      <circle class="cls-8" cx="2955.08" cy="101.11" r="101.11"/>
      <circle class="cls-8" cx="4356.75" cy="101.11" r="101.11"/>
      <circle class="cls-8" cx="3642.91" cy="101.11" r="101.11"/>
      <path class="cls-12" d="M2955.08,56.11c-24.85,0-45,20.15-45,45s20.15,45,45,45,45-20.15,45-45-20.15-45-45-45ZM2929.46,89.97c0-4.18,3.39-7.57,7.57-7.57s7.57,3.39,7.57,7.57-3.39,7.57-7.57,7.57-7.57-3.39-7.57-7.57ZM2937.03,118.1h36.09s-17.3,29.13-36.09,0ZM2973.12,97.54c-4.18,0-7.57-3.39-7.57-7.57s3.39-7.57,7.57-7.57,7.57,3.39,7.57,7.57-3.39,7.57-7.57,7.57Z"/>
      <path class="cls-12" d="M3642.91,56.11c-24.85,0-45,20.15-45,45s20.15,45,45,45,45-20.15,45-45-20.15-45-45-45ZM3617.29,89.97c0-4.18,3.39-7.57,7.57-7.57s7.57,3.39,7.57,7.57-3.39,7.57-7.57,7.57-7.57-3.39-7.57-7.57ZM3624.87,118.1h36.09s-17.3,29.13-36.09,0ZM3660.96,97.54c-4.18,0-7.57-3.39-7.57-7.57s3.39-7.57,7.57-7.57,7.57,3.39,7.57,7.57-3.39,7.57-7.57,7.57Z"/>
      <path class="cls-12" d="M4356.75,45.73c-30.59,0-55.38,24.79-55.38,55.38s24.79,55.38,55.38,55.38,55.38-24.79,55.38-55.38-24.79-55.38-55.38-55.38ZM4325.22,87.4c0-5.15,4.17-9.32,9.32-9.32s9.32,4.17,9.32,9.32-4.17,9.32-9.32,9.32-9.32-4.17-9.32-9.32ZM4334.54,122.02h44.42s-21.29,35.85-44.42,0ZM4378.95,96.72c-5.15,0-9.32-4.17-9.32-9.32s4.17-9.32,9.32-9.32,9.32,4.17,9.32,9.32-4.17,9.32-9.32,9.32Z"/>
      <path class="cls-12" d="M294.74,665.81c24.85,0,45-20.15,45-45s-20.15-45-45-45-45,20.15-45,45,20.15,45,45,45ZM312.79,602.1c4.18,0,7.57,3.39,7.57,7.57s-3.39,7.57-7.57,7.57-7.57-3.39-7.57-7.57,3.39-7.57,7.57-7.57ZM309.22,637.3c1.59,0,2.9,1.3,2.9,2.9s-1.3,2.9-2.9,2.9h-28.96c-1.59,0-2.9-1.3-2.9-2.9s1.3-2.9,2.9-2.9h28.96ZM276.69,602.1c4.18,0,7.57,3.39,7.57,7.57s-3.39,7.57-7.57,7.57-7.57-3.39-7.57-7.57,3.39-7.57,7.57-7.57Z"/>
      <path class="cls-12" d="M1098.96,665.81c24.85,0,45-20.15,45-45s-20.15-45-45-45-45,20.15-45,45,20.15,45,45,45ZM1117.01,602.1c4.18,0,7.57,3.39,7.57,7.57s-3.39,7.57-7.57,7.57-7.57-3.39-7.57-7.57,3.39-7.57,7.57-7.57ZM1113.44,637.3c1.59,0,2.9,1.3,2.9,2.9s-1.3,2.9-2.9,2.9h-28.96c-1.59,0-2.9-1.3-2.9-2.9s1.3-2.9,2.9-2.9h28.96ZM1080.92,602.1c4.18,0,7.57,3.39,7.57,7.57s-3.39,7.57-7.57,7.57-7.57-3.39-7.57-7.57,3.39-7.57,7.57-7.57Z"/>
      <path class="cls-12" d="M1514.85,374.06c-24.85,0-45,20.15-45,45s20.15,45,45,45,45-20.15,45-45-20.15-45-45-45ZM1489.23,407.92c0-4.18,3.39-7.57,7.57-7.57s7.57,3.39,7.57,7.57-3.39,7.57-7.57,7.57-7.57-3.39-7.57-7.57ZM1496.07,436.52h36.82c-19.23,13.47-36.82,0-36.82,0ZM1532.89,415.49c-4.18,0-7.57-3.39-7.57-7.57s3.39-7.57,7.57-7.57,7.57,3.39,7.57,7.57-3.39,7.57-7.57,7.57Z"/>
      <circle class="cls-5" cx="2354.3" cy="827.68" r="101.11"/>
      <text class="cls-13" transform="translate(472 640.05)"><tspan x="0" y="0">Introduction Phase </tspan></text>
      <text class="cls-14" transform="translate(3215.55 114.96)"><tspan x="0" y="0">Loyalty</tspan></text>
      <text class="cls-13" transform="translate(1702.42 114.96)"><tspan x="0" y="0">Repetition</tspan></text>
      <text class="cls-14" transform="translate(3885.76 114.96)"><tspan x="0" y="0">Advocacy</tspan></text>
      <g>
        <path class="cls-11" d="M2583.07,647.73c3.16,1.68,5.02,4.01,5.6,6.97s-.15,6.36-2.19,10.18l-1.68,3.14,11.31,6.04-2.64,4.94-30.23-16.13,4.65-8.71c2.02-3.78,4.3-6.19,6.85-7.25s5.32-.79,8.33.82ZM2580.65,665.81l1.4-2.63c1.35-2.54,1.91-4.63,1.66-6.29s-1.31-2.98-3.19-3.98c-1.74-.93-3.32-1.09-4.74-.48s-2.73,2.03-3.93,4.28l-1.83,3.43,10.63,5.67Z"/>
        <path class="cls-11" d="M2615.71,637.34l-3.36-.92-.13.25c.7,1.24,1.02,2.65.96,4.22s-.52,3.16-1.37,4.76c-1.48,2.77-3.27,4.47-5.38,5.1s-4.56.2-7.36-1.3l-14.95-7.98,2.61-4.9,14.1,7.52c1.75.93,3.26,1.28,4.51,1.03s2.3-1.14,3.11-2.67c1.09-2.04,1.28-3.86.57-5.47s-2.5-3.18-5.36-4.71l-11.39-6.08,2.6-4.88,22.87,12.2-2.04,3.83Z"/>
        <path class="cls-11" d="M2604.36,602.56c.52-.98,1.02-1.75,1.5-2.31l4.27,2.89c-.53.6-1,1.27-1.4,2.02-1.04,1.94-1.24,3.86-.62,5.74s1.95,3.37,3.98,4.45l11.95,6.38-2.59,4.86-22.87-12.2,2.03-3.8,4.37,1.51.13-.25c-.96-1.49-1.51-3.05-1.66-4.7s.15-3.17.9-4.58Z"/>
        <path class="cls-11" d="M2636.53,599.32c-1.85,3.46-4.26,5.55-7.24,6.27s-6.36.07-10.13-1.94c-3.85-2.05-6.3-4.57-7.36-7.56s-.65-6.26,1.25-9.81c1.29-2.41,2.89-4.34,4.82-5.8l3.12,3.55c-1.9,1.63-3.2,3.11-3.91,4.45-2.11,3.96-.54,7.34,4.71,10.14,2.56,1.37,4.75,1.9,6.57,1.61s3.23-1.4,4.24-3.3c1.15-2.16,1.71-4.5,1.66-7l4.24,2.26c.05,1.14-.08,2.26-.39,3.37s-.83,2.36-1.58,3.76Z"/>
        <path class="cls-11" d="M2653.12,567.24l-2.6,4.88-14.06-7.5c-1.76-.94-3.27-1.29-4.52-1.04s-2.28,1.14-3.11,2.69c-1.09,2.04-1.28,3.86-.57,5.47s2.5,3.18,5.36,4.71l11.35,6.06-2.59,4.86-32.18-17.17,2.59-4.86,8.17,4.36c1.31.7,2.66,1.53,4.07,2.49l.17-.31c-.75-1.25-1.11-2.63-1.09-4.13s.45-3.04,1.29-4.61c2.96-5.54,7.23-6.82,12.81-3.84l14.91,7.96Z"/>
        <path class="cls-11" d="M2664.36,546.17l-3.7-.73-.09.17c.8,1.85,1.16,3.46,1.07,4.85s-.61,2.95-1.54,4.7c-1.2,2.25-2.74,3.68-4.63,4.29s-3.94.33-6.16-.86c-2.36-1.26-3.67-3.08-3.93-5.47s.5-5.41,2.31-9.05l1.98-4.02-1.22-.65c-1.46-.78-2.74-1.02-3.82-.73s-2.01,1.16-2.78,2.59c-.63,1.17-1.05,2.39-1.28,3.65s-.37,2.51-.43,3.75l-4.31-.28c.01-1.59.25-3.21.7-4.86s1.02-3.14,1.72-4.45c1.55-2.91,3.36-4.77,5.42-5.57s4.45-.48,7.16.97l15.41,8.22-1.85,3.47ZM2657.19,551.64c.94-1.76,1.2-3.44.79-5.04s-1.51-2.87-3.29-3.81l-1.99-1.06-1.44,3c-1.14,2.33-1.64,4.2-1.52,5.61s.89,2.48,2.3,3.23c1.02.54,1.97.66,2.85.35s1.65-1.07,2.29-2.28Z"/>
        <path class="cls-11" d="M2671.52,517.07c2.23,1.19,3.51,2.92,3.84,5.18s-.32,4.91-1.94,7.94-3.39,5.25-5.3,6.6l-4.2-2.24c2.68-2.03,4.63-4.2,5.87-6.51,1.6-2.99,1.49-4.97-.31-5.93-.58-.31-1.15-.4-1.71-.28s-1.25.46-2.07.99-1.85,1.34-3.09,2.41c-2.43,2.09-4.4,3.33-5.91,3.71s-3.09.15-4.71-.72c-1.96-1.04-3.06-2.64-3.3-4.8s.36-4.59,1.81-7.31,3.34-4.94,5.7-6.76l2.82,3.52c-2.34,1.92-3.95,3.73-4.85,5.41-1.37,2.56-1.32,4.24.14,5.02.72.38,1.5.37,2.35-.03s2.31-1.5,4.38-3.28c1.74-1.5,3.14-2.51,4.2-3.04s2.1-.79,3.11-.78,2.07.31,3.17.9Z"/>
        <path class="cls-11" d="M2686.58,505.53c-1.9,3.56-4.42,5.78-7.56,6.68s-6.54.38-10.18-1.56-6.18-4.49-7.32-7.49-.85-6.13.89-9.38c1.61-3.02,3.8-4.91,6.57-5.69,2.77-.77,5.76-.3,8.97,1.41l2.63,1.4-8.13,15.24c2.26,1.12,4.28,1.43,6.08.93s3.24-1.77,4.34-3.82c.72-1.35,1.26-2.68,1.63-3.98s.61-2.78.73-4.43l3.95,2.11c-.07,1.49-.31,2.9-.72,4.24s-1.03,2.79-1.87,4.34ZM2666.09,495.74c-.82,1.54-.99,3.04-.51,4.5s1.61,2.77,3.39,3.95l5.54-10.38c-1.9-.98-3.58-1.29-5.02-.92s-2.58,1.32-3.4,2.86Z"/>
        <path class="cls-11" d="M2697.71,446.57c4.99,2.66,8.07,6.08,9.23,10.26s.35,8.87-2.43,14.09l-4.51,8.46-30.23-16.13,4.99-9.35c2.57-4.81,5.86-7.86,9.88-9.15s8.38-.68,13.08,1.83ZM2695.1,451.87c-7.24-3.86-12.66-2.41-16.27,4.36l-2.28,4.28,21.94,11.71,1.88-3.52c3.88-7.28,2.13-12.89-5.26-16.83Z"/>
        <path class="cls-11" d="M2722.05,439.05c-1.9,3.56-4.42,5.78-7.56,6.68s-6.54.38-10.18-1.56c-3.74-1.99-6.18-4.49-7.32-7.49s-.85-6.13.89-9.38c1.61-3.02,3.8-4.91,6.57-5.69s5.76-.3,8.97,1.41l2.63,1.4-8.13,15.24c2.26,1.12,4.28,1.43,6.08.93s3.24-1.77,4.34-3.82c.72-1.35,1.26-2.68,1.63-3.98s.61-2.78.73-4.43l3.95,2.11c-.07,1.49-.31,2.9-.72,4.24s-1.03,2.79-1.87,4.34ZM2701.56,429.26c-.82,1.54-.99,3.04-.51,4.5s1.61,2.77,3.39,3.95l5.54-10.38c-1.9-.98-3.58-1.29-5.02-.92s-2.58,1.32-3.4,2.86Z"/>
        <path class="cls-11" d="M2734.66,415.41c-1.85,3.46-4.26,5.55-7.24,6.27-2.98.72-6.36.07-10.13-1.94s-6.3-4.57-7.36-7.56-.65-6.26,1.25-9.81c1.29-2.41,2.89-4.34,4.82-5.8l3.12,3.55c-1.9,1.63-3.2,3.11-3.91,4.45-2.11,3.96-.54,7.34,4.71,10.14,2.56,1.37,4.75,1.9,6.57,1.61s3.23-1.4,4.24-3.3c1.15-2.16,1.71-4.5,1.66-7l4.24,2.26c.05,1.14-.08,2.26-.39,3.37s-.83,2.36-1.58,3.76Z"/>
        <path class="cls-11" d="M2711.43,388.3c-.87-.46-1.41-1.06-1.63-1.78s-.09-1.53.38-2.41,1.05-1.39,1.77-1.62,1.52-.11,2.39.36,1.35,1.03,1.57,1.76.1,1.52-.35,2.38-1.07,1.43-1.8,1.66-1.51.11-2.33-.33ZM2743.11,398.59l-2.59,4.86-22.87-12.2,2.59-4.86,22.87,12.2Z"/>
        <path class="cls-11" d="M2748.5,372.8c2.23,1.19,3.51,2.92,3.84,5.18s-.32,4.91-1.94,7.94-3.39,5.25-5.3,6.6l-4.2-2.24c2.68-2.03,4.63-4.2,5.87-6.51,1.6-2.99,1.49-4.97-.31-5.93-.58-.31-1.15-.4-1.71-.28s-1.25.46-2.07.99-1.85,1.34-3.09,2.41c-2.43,2.09-4.4,3.33-5.91,3.71s-3.09.15-4.71-.72c-1.96-1.04-3.06-2.64-3.3-4.8s.36-4.59,1.81-7.31,3.34-4.94,5.7-6.76l2.82,3.52c-2.34,1.92-3.95,3.73-4.85,5.41-1.37,2.56-1.32,4.24.14,5.02.72.38,1.5.37,2.35-.03s2.31-1.5,4.38-3.28c1.74-1.5,3.14-2.51,4.2-3.04s2.1-.79,3.11-.78,2.07.31,3.17.9Z"/>
        <path class="cls-11" d="M2728.73,355.88c-.87-.46-1.41-1.06-1.63-1.78s-.09-1.53.38-2.41,1.05-1.39,1.77-1.62,1.52-.11,2.39.36,1.35,1.03,1.57,1.76.1,1.52-.35,2.38-1.07,1.43-1.8,1.66-1.51.11-2.33-.33ZM2760.41,366.16l-2.59,4.86-22.87-12.2,2.59-4.86,22.87,12.2Z"/>
        <path class="cls-11" d="M2763.46,332.81c3.74,1.99,6.14,4.51,7.21,7.54s.7,6.26-1.13,9.68c-1.14,2.14-2.63,3.77-4.47,4.89s-3.9,1.65-6.18,1.57-4.61-.76-6.99-2.03c-3.71-1.98-6.1-4.47-7.16-7.49s-.68-6.25,1.17-9.71,4.23-5.36,7.39-6.15,6.55-.23,10.16,1.7ZM2754.58,349.45c5.28,2.82,8.96,2.28,11.04-1.63s.45-7.2-4.83-10.02-8.87-2.24-10.95,1.65c-1.09,2.04-1.2,3.88-.34,5.52s2.55,3.13,5.08,4.48Z"/>
        <path class="cls-11" d="M2788.65,313.23l-2.6,4.88-14.06-7.5c-1.76-.94-3.27-1.29-4.52-1.04s-2.28,1.14-3.11,2.69c-1.1,2.05-1.29,3.88-.59,5.48s2.49,3.16,5.34,4.68l11.39,6.08-2.59,4.86-22.87-12.2,2.03-3.8,3.36.92.13-.25c-.72-1.27-1.04-2.7-.96-4.28s.54-3.15,1.36-4.69c2.93-5.49,7.18-6.74,12.77-3.76l14.91,7.96Z"/>
      </g>
      <g>
        <path class="cls-11" d="M1749.49,526.16l-14.34-13.04,23.06-25.35,14.34,13.04-3.19,3.5-10.19-9.27-6.28,6.9,9.55,8.69-3.15,3.47-9.55-8.69-7.24,7.96,10.19,9.27-3.2,3.52Z"/>
        <path class="cls-11" d="M1758.9,534.72l10.16-25.8,4.3,3.91-6.24,14.7c-1.03,2.48-2.01,4.36-2.92,5.65l.14.13c.86-.74,2.64-1.88,5.35-3.44l14.04-7.6,4.33,3.94-24.76,12.52-4.4-4.01Z"/>
        <path class="cls-11" d="M1785.53,558.95l1.61-3.41-.14-.13c-1.99.33-3.64.27-4.96-.16s-2.71-1.31-4.18-2.65c-1.88-1.71-2.89-3.56-3.02-5.54s.65-3.9,2.34-5.76c1.8-1.98,3.89-2.8,6.27-2.47s5.12,1.82,8.21,4.46l3.41,2.91.93-1.02c1.11-1.23,1.66-2.4,1.64-3.53s-.63-2.24-1.83-3.33c-.98-.89-2.06-1.61-3.22-2.14s-2.34-.98-3.53-1.34l1.33-4.11c1.53.4,3.05,1.03,4.54,1.87s2.79,1.76,3.89,2.76c2.44,2.22,3.8,4.42,4.07,6.62s-.62,4.43-2.69,6.71l-11.75,12.92-2.91-2.65ZM1781.99,550.66c1.48,1.35,3.04,2.01,4.69,2s3.15-.76,4.51-2.25l1.51-1.66-2.56-2.14c-1.98-1.68-3.67-2.63-5.06-2.85s-2.63.26-3.7,1.44c-.78.86-1.13,1.75-1.04,2.68s.63,1.86,1.65,2.78Z"/>
        <path class="cls-11" d="M1798.2,570.48l-4.07-3.71,24.54-26.98,4.07,3.71-24.54,26.98Z"/>
        <path class="cls-11" d="M1817.55,588.08l1.71-3.03-.21-.19c-1.38.37-2.82.34-4.33-.1s-2.93-1.27-4.27-2.49c-2.32-2.11-3.53-4.27-3.62-6.47s.93-4.47,3.06-6.81l11.4-12.53,4.11,3.74-10.76,11.82c-1.34,1.47-2.04,2.84-2.1,4.12s.54,2.5,1.82,3.67c1.71,1.56,3.43,2.19,5.17,1.9s3.69-1.64,5.88-4.04l8.69-9.55,4.09,3.72-17.44,19.17-3.21-2.92Z"/>
        <path class="cls-11" d="M1838.56,607.2l1.61-3.41-.14-.13c-1.99.33-3.64.27-4.96-.16s-2.71-1.31-4.18-2.65c-1.88-1.71-2.89-3.56-3.02-5.54s.65-3.9,2.34-5.76c1.8-1.98,3.89-2.8,6.27-2.47s5.12,1.82,8.21,4.46l3.41,2.91.93-1.02c1.11-1.23,1.66-2.4,1.64-3.53s-.63-2.24-1.83-3.33c-.98-.89-2.06-1.61-3.22-2.14s-2.34-.98-3.53-1.34l1.33-4.11c1.53.4,3.05,1.03,4.54,1.87s2.79,1.76,3.89,2.76c2.44,2.22,3.8,4.42,4.07,6.62s-.62,4.43-2.69,6.71l-11.75,12.92-2.91-2.65ZM1835.02,598.9c1.48,1.35,3.04,2.01,4.69,2s3.15-.76,4.51-2.25l1.51-1.66-2.56-2.14c-1.98-1.68-3.67-2.63-5.06-2.85s-2.63.26-3.7,1.44c-.78.86-1.13,1.75-1.04,2.68s.63,1.86,1.65,2.78Z"/>
        <path class="cls-11" d="M1856.99,618.57c.99.9,2.13,1.65,3.41,2.24l-2.79,3.07c-.63-.21-1.36-.58-2.19-1.09s-1.63-1.12-2.39-1.81c-3.86-3.51-3.94-7.3-.24-11.37l9.4-10.33-2.62-2.38,1.64-1.8,4.16,1.06,5.08-2.79,2.51,2.29-3.88,4.26,5.46,4.97-2.81,3.09-5.46-4.97-9.34,10.26c-.89.98-1.31,1.93-1.24,2.85s.5,1.74,1.29,2.46Z"/>
        <path class="cls-11" d="M1882.94,603.24c.66-.73,1.37-1.11,2.13-1.14s1.5.29,2.24.96,1.1,1.36,1.14,2.11-.27,1.5-.93,2.23-1.33,1.06-2.09,1.09-1.5-.27-2.22-.92-1.13-1.39-1.16-2.15.26-1.49.89-2.18ZM1865.19,631.42l-4.07-3.71,17.44-19.17,4.07,3.71-17.44,19.17Z"/>
        <path class="cls-11" d="M1896.78,642.57c-2.85,3.13-5.88,4.85-9.08,5.14s-6.24-.86-9.11-3.47c-1.79-1.63-3.01-3.47-3.65-5.54s-.64-4.18,0-6.37,1.87-4.28,3.69-6.28c2.83-3.11,5.83-4.81,9.02-5.1s6.22.88,9.13,3.52,4.16,5.41,4.15,8.67-1.39,6.4-4.14,9.43ZM1882.82,629.88c-4.03,4.43-4.41,8.13-1.13,11.1,3.24,2.94,6.87,2.2,10.89-2.22s4.35-8.05,1.09-11.02c-1.71-1.56-3.47-2.12-5.26-1.68s-3.66,1.71-5.58,3.82Z"/>
        <path class="cls-11" d="M1909.57,671.8l-4.09-3.72,10.73-11.79c1.35-1.48,2.05-2.85,2.12-4.12s-.55-2.49-1.84-3.67c-1.72-1.57-3.44-2.2-5.17-1.91s-3.67,1.63-5.85,4.03l-8.69,9.55-4.07-3.71,17.44-19.17,3.19,2.9-1.71,3.03.21.19c1.41-.39,2.87-.35,4.39.12s2.92,1.29,4.21,2.47c4.6,4.18,4.77,8.62.51,13.3l-11.37,12.5Z"/>
        <path class="cls-11" d="M1957.77,683.33c-2.41,2.65-5.12,3.89-8.14,3.72s-6.13-1.71-9.33-4.62l-2.64-2.4-8.63,9.48-4.14-3.77,23.06-25.35,7.3,6.64c3.17,2.88,4.95,5.69,5.35,8.42s-.55,5.35-2.84,7.87ZM1940.84,676.54l2.2,2c2.13,1.93,4.02,2.98,5.69,3.15s3.22-.54,4.65-2.11c1.32-1.46,1.87-2.95,1.63-4.47s-1.3-3.15-3.18-4.86l-2.88-2.62-8.11,8.91Z"/>
        <path class="cls-11" d="M1963.18,720.57l-4.09-3.72,10.73-11.79c1.35-1.48,2.05-2.85,2.12-4.12s-.55-2.49-1.84-3.67c-1.71-1.56-3.43-2.19-5.17-1.9s-3.69,1.64-5.88,4.04l-8.66,9.52-4.07-3.71,24.54-26.98,4.07,3.71-6.23,6.85c-1,1.1-2.14,2.21-3.41,3.33l.26.24c1.4-.42,2.82-.43,4.27-.04s2.84,1.19,4.15,2.38c4.65,4.23,4.84,8.68.58,13.36l-11.37,12.5Z"/>
        <path class="cls-11" d="M1980.85,736.64l1.61-3.41-.14-.13c-1.99.33-3.64.27-4.96-.16s-2.71-1.31-4.18-2.65c-1.88-1.71-2.89-3.56-3.02-5.54s.65-3.9,2.34-5.76c1.8-1.98,3.89-2.8,6.27-2.47s5.12,1.82,8.21,4.46l3.41,2.91.93-1.02c1.11-1.23,1.66-2.4,1.64-3.53s-.63-2.24-1.83-3.33c-.98-.89-2.06-1.61-3.22-2.14s-2.34-.98-3.53-1.34l1.33-4.11c1.53.4,3.05,1.03,4.54,1.87s2.79,1.76,3.89,2.76c2.44,2.22,3.8,4.42,4.07,6.62s-.62,4.43-2.69,6.71l-11.75,12.92-2.91-2.65ZM1977.3,728.35c1.48,1.35,3.04,2.01,4.69,2s3.15-.76,4.51-2.25l1.51-1.66-2.56-2.14c-1.98-1.68-3.67-2.63-5.06-2.85s-2.63.26-3.7,1.44c-.78.86-1.13,1.75-1.04,2.68s.63,1.86,1.65,2.78Z"/>
        <path class="cls-11" d="M2007.29,750.72c-1.7,1.87-3.69,2.69-5.97,2.45s-4.68-1.52-7.22-3.83-4.25-4.58-5.1-6.76l3.2-3.52c1.31,3.09,2.93,5.52,4.87,7.29,2.51,2.28,4.45,2.67,5.83,1.15.44-.49.67-1.02.69-1.59s-.13-1.33-.45-2.25-.85-2.12-1.58-3.59c-1.43-2.86-2.15-5.08-2.15-6.64s.62-3.03,1.86-4.39c1.49-1.64,3.31-2.31,5.46-2.02s4.36,1.48,6.64,3.55,3.97,4.45,5.15,7.19l-4.11,1.87c-1.29-2.74-2.64-4.75-4.05-6.03-2.15-1.96-3.78-2.32-4.9-1.1-.55.6-.73,1.36-.55,2.29s.88,2.61,2.11,5.05c1.03,2.05,1.67,3.66,1.92,4.82s.25,2.23,0,3.21-.81,1.93-1.65,2.86Z"/>
        <path class="cls-11" d="M2014.79,768.15c-2.98-2.71-4.52-5.7-4.62-8.97s1.24-6.43,4.02-9.48c2.85-3.13,5.87-4.88,9.06-5.26,3.19-.37,6.15.68,8.88,3.16,2.53,2.3,3.83,4.89,3.9,7.76s-1.12,5.66-3.57,8.35l-2,2.2-12.78-11.62c-1.64,1.91-2.43,3.8-2.4,5.66s.92,3.58,2.64,5.14c1.13,1.03,2.28,1.88,3.46,2.56s2.54,1.27,4.12,1.8l-3.01,3.31c-1.43-.43-2.74-1.01-3.93-1.74s-2.45-1.69-3.75-2.88ZM2029.31,750.69c-1.29-1.18-2.71-1.71-4.23-1.6s-3.08.88-4.66,2.32l8.7,7.92c1.42-1.6,2.13-3.15,2.13-4.64s-.64-2.82-1.94-4Z"/>
      </g>
      <g>
        <path class="cls-12" d="M1220.99,563.83l-15.27,11.93-21.09-27,15.27-11.93,2.91,3.73-10.86,8.48,5.74,7.35,10.18-7.95,2.89,3.69-10.18,7.95,6.62,8.48,10.86-8.48,2.93,3.75Z"/>
        <path class="cls-12" d="M1222.76,545.65l-14.66-4.64,4.95-3.87,10.24,3.51-.89-10.81,4.91-3.84.94,15.36,15.37,4.79-4.91,3.84-11.02-3.71.95,11.57-4.91,3.84-.97-16.05Z"/>
        <path class="cls-12" d="M1257.85,535.63c-2.59,2.02-5.32,2.66-8.2,1.91l-.26.2c1.52,1.59,2.42,2.57,2.71,2.94l6.54,8.37-4.34,3.39-23.06-29.51,3.51-2.74c.4.3,1.31,1.06,2.74,2.26l.22-.17c-.26-3.13.96-5.75,3.67-7.86,2.55-1.99,5.26-2.62,8.12-1.88s5.6,2.77,8.21,6.11,3.92,6.51,3.93,9.51-1.25,5.5-3.8,7.49ZM1243.03,518.83c-1.72,1.35-2.59,2.84-2.59,4.47s.86,3.55,2.59,5.77l.5.65c1.94,2.49,3.74,3.98,5.4,4.48s3.38.05,5.17-1.34c1.5-1.17,2.18-2.69,2.03-4.56s-1.11-3.94-2.89-6.22-3.55-3.71-5.27-4.25-3.37-.21-4.93,1.01Z"/>
        <path class="cls-12" d="M1275.11,521.55l-4.34,3.39-22.45-28.74,4.34-3.39,22.45,28.74Z"/>
        <path class="cls-12" d="M1291.43,492.3c2.61,3.34,3.79,6.61,3.54,9.82s-1.9,6.01-4.95,8.39c-1.91,1.49-3.93,2.38-6.07,2.66s-4.23-.07-6.28-1.07-3.9-2.56-5.57-4.69c-2.59-3.31-3.76-6.56-3.51-9.75s1.92-5.99,5.01-8.4,6.04-3.18,9.25-2.63,6.08,2.45,8.6,5.67ZM1276.56,503.92c3.68,4.72,7.27,5.71,10.75,2.99s3.33-6.4-.35-11.11-7.2-5.64-10.68-2.93c-1.82,1.42-2.67,3.06-2.55,4.9s1.07,3.9,2.83,6.15Z"/>
        <path class="cls-12" d="M1298.54,469.76c.87-.68,1.64-1.18,2.31-1.5l2.74,4.38c-.73.33-1.43.76-2.09,1.28-1.74,1.36-2.7,3.02-2.89,5s.42,3.87,1.83,5.68l8.34,10.68-4.34,3.39-15.96-20.43,3.4-2.65,3.39,3.15.22-.17c-.28-1.75-.15-3.4.39-4.97s1.43-2.84,2.68-3.82Z"/>
        <path class="cls-12" d="M1329.94,479.32c-3.18,2.48-6.38,3.5-9.62,3.04s-6.13-2.31-8.67-5.56-3.82-6.61-3.65-9.82,1.71-5.95,4.62-8.22c2.7-2.11,5.47-2.95,8.31-2.54s5.39,2.06,7.63,4.93l1.83,2.35-13.61,10.63c1.61,1.93,3.34,3.04,5.18,3.32s3.68-.3,5.51-1.74c1.21-.94,2.24-1.93,3.1-2.97s1.68-2.29,2.46-3.75l2.76,3.53c-.66,1.33-1.46,2.53-2.38,3.58s-2.08,2.13-3.47,3.21ZM1315.18,462.06c-1.38,1.08-2.14,2.38-2.29,3.9s.35,3.19,1.5,4.98l9.27-7.24c-1.34-1.67-2.75-2.63-4.21-2.88s-2.89.16-4.27,1.24Z"/>
      </g>
      <path class="cls-1" d="M2354.3,842.45l258.16,280.62c48.53,52.75,116.93,82.77,188.61,82.77h154"/>
      <circle class="cls-5" cx="2955.08" cy="1192.31" r="101.11"/>
      <g>
        <path class="cls-12" d="M3015.57,1130.34h9.15c1.81,0,3.21,1.59,2.99,3.38l-4.57,36.79c-.19,1.51-1.47,2.64-2.99,2.64h0c-1.52,0-2.8-1.13-2.99-2.64l-4.57-36.79c-.22-1.8,1.18-3.38,2.99-3.38Z"/>
        <path class="cls-12" d="M2954.31,1143.52c-30.59,0-55.38,24.79-55.38,55.38s24.79,55.38,55.38,55.38,55.38-24.79,55.38-55.38-24.79-55.38-55.38-55.38ZM2932.1,1194.52c-5.15,0-9.32-4.17-9.32-9.32s4.17-9.32,9.32-9.32,9.32,4.17,9.32,9.32-4.17,9.32-9.32,9.32ZM2976.52,1194.52c-5.15,0-9.32-4.17-9.32-9.32s4.17-9.32,9.32-9.32,9.32,4.17,9.32,9.32-4.17,9.32-9.32,9.32Z"/>
        <circle class="cls-12" cx="3020.14" cy="1185.19" r="9.32"/>
      </g>
      <path class="cls-12" d="M2353.32,783.41c-24.85,0-45,20.15-45,45s20.15,45,45,45,45-20.15,45-45-20.15-45-45-45ZM2327.7,817.26c0-4.18,3.39-7.57,7.57-7.57s7.57,3.39,7.57,7.57-3.39,7.57-7.57,7.57-7.57-3.39-7.57-7.57ZM2334.55,848.44c19.23-13.47,36.82,0,36.82,0h-36.82ZM2371.36,824.84c-4.18,0-7.57-3.39-7.57-7.57s3.39-7.57,7.57-7.57,7.57,3.39,7.57,7.57-3.39,7.57-7.57,7.57Z"/>
      <g>
        <path class="cls-12" d="M2445.52,939.35c-4.05,3.84-8.15,5.81-12.32,5.91-4.16.1-8-1.7-11.52-5.41-3.56-3.75-5.18-7.69-4.86-11.82s2.53-8.13,6.64-12.02c4.1-3.89,8.22-5.87,12.34-5.93s7.96,1.78,11.52,5.54c3.5,3.7,5.1,7.61,4.78,11.75s-2.51,8.13-6.57,11.98ZM2427.53,920.37c-3.06,2.9-4.8,5.72-5.21,8.46s.54,5.32,2.84,7.74,4.8,3.5,7.53,3.24,5.64-1.85,8.74-4.78,4.79-5.69,5.21-8.41-.51-5.28-2.8-7.69-4.84-3.53-7.6-3.28c-2.75.25-5.66,1.82-8.71,4.72Z"/>
        <path class="cls-12" d="M2441.78,960.37l12.04-24.98,4,4.22-7.31,14.2c-1.21,2.4-2.32,4.2-3.33,5.42l.13.14c.91-.67,2.77-1.68,5.59-3.03l14.56-6.54,4.03,4.25-25.62,10.66-4.1-4.32Z"/>
        <path class="cls-12" d="M2462.84,983.26c-2.77-2.93-4.09-6.02-3.95-9.29s1.71-6.32,4.7-9.16c3.07-2.91,6.21-4.44,9.42-4.57,3.21-.14,6.08,1.13,8.62,3.81,2.35,2.48,3.46,5.16,3.32,8.03s-1.54,5.56-4.18,8.06l-2.16,2.05-11.88-12.54c-1.77,1.79-2.71,3.61-2.81,5.47s.65,3.63,2.25,5.32c1.05,1.11,2.14,2.05,3.26,2.81s2.44,1.46,3.97,2.1l-3.25,3.08c-1.39-.53-2.65-1.21-3.79-2.02s-2.32-1.86-3.53-3.14ZM2478.61,966.92c-1.2-1.27-2.57-1.91-4.1-1.91s-3.14.65-4.82,1.97l8.09,8.54c1.53-1.5,2.35-2.98,2.47-4.47s-.43-2.86-1.64-4.13Z"/>
        <path class="cls-12" d="M2502.62,986.18c.76.81,1.34,1.52,1.72,2.15l-4.1,3.14c-.4-.7-.89-1.35-1.47-1.96-1.52-1.6-3.27-2.4-5.25-2.4s-3.81.79-5.48,2.37l-9.83,9.32-3.79-4,18.81-17.83,2.97,3.13-2.82,3.67.19.2c1.71-.44,3.38-.47,4.98-.09s2.96,1.15,4.06,2.3Z"/>
        <path class="cls-12" d="M2516.92,1001.27c2.23,2.35,3.11,4.98,2.65,7.9s-2.23,5.84-5.3,8.75-6.11,4.54-9.09,4.84-5.58-.73-7.82-3.08-3.15-5.04-2.69-7.98l-.26-.27-2.92,1.38-2.84-2.99,26.47-25.09,3.79,4-6.29,5.97c-.46.44-1.18,1.07-2.14,1.9s-1.58,1.35-1.85,1.56l.16.17c3.07-.5,5.78.48,8.13,2.95ZM2512.67,1003.32c-1.53-1.61-3.1-2.32-4.72-2.13s-3.55,1.33-5.79,3.41l-.27.26c-2.29,2.17-3.6,4.11-3.94,5.81s.27,3.37,1.83,5.01c1.34,1.42,2.92,1.96,4.74,1.63s3.78-1.5,5.9-3.51c4.27-4.05,5.03-7.54,2.25-10.47Z"/>
        <path class="cls-12" d="M2516.68,1040.05c-2.77-2.93-4.09-6.02-3.95-9.29s1.71-6.32,4.7-9.16,6.21-4.44,9.42-4.57,6.08,1.13,8.62,3.81c2.35,2.48,3.46,5.16,3.32,8.03s-1.54,5.56-4.18,8.06l-2.16,2.05-11.88-12.54c-1.77,1.79-2.71,3.61-2.81,5.47s.65,3.63,2.25,5.32c1.05,1.11,2.14,2.05,3.26,2.81s2.44,1.46,3.97,2.1l-3.25,3.08c-1.39-.53-2.65-1.21-3.79-2.02s-2.32-1.86-3.53-3.14ZM2532.45,1023.71c-1.2-1.27-2.57-1.91-4.1-1.91s-3.14.65-4.82,1.97l8.09,8.54c1.53-1.5,2.35-2.98,2.47-4.47s-.43-2.86-1.64-4.13Z"/>
        <path class="cls-12" d="M2539.42,1063.36l1.86-3.28-.13-.14c-2.01.18-3.65,0-4.93-.52s-2.61-1.51-3.97-2.95c-1.75-1.85-2.62-3.76-2.61-5.75s.93-3.84,2.76-5.57c1.94-1.84,4.08-2.5,6.44-2s4.97,2.19,7.86,5.05l3.18,3.15,1-.95c1.2-1.14,1.83-2.27,1.9-3.4s-.46-2.28-1.58-3.46c-.91-.96-1.93-1.75-3.05-2.37s-2.26-1.15-3.42-1.6l1.63-4c1.5.52,2.96,1.25,4.39,2.2s2.65,1.96,3.67,3.04c2.27,2.39,3.46,4.69,3.57,6.9s-.95,4.37-3.18,6.49l-12.67,12.01-2.71-2.86ZM2536.5,1054.82c1.38,1.45,2.89,2.23,4.53,2.34s3.2-.53,4.66-1.91l1.63-1.55-2.39-2.32c-1.85-1.82-3.47-2.89-4.84-3.21s-2.64.06-3.79,1.16c-.84.8-1.25,1.66-1.24,2.59s.49,1.9,1.44,2.9Z"/>
        <path class="cls-12" d="M2575.61,1063.18c.76.81,1.34,1.52,1.72,2.15l-4.1,3.14c-.4-.7-.89-1.35-1.47-1.96-1.52-1.6-3.27-2.4-5.25-2.4s-3.81.79-5.48,2.37l-9.83,9.32-3.79-4,18.81-17.83,2.97,3.13-2.82,3.67.19.2c1.71-.44,3.38-.47,4.98-.09s2.96,1.15,4.06,2.3Z"/>
        <path class="cls-12" d="M2585.22,1064.01c.71-.68,1.45-1,2.21-.98s1.48.4,2.17,1.13.99,1.43.98,2.19-.38,1.47-1.09,2.15-1.4.96-2.16.94-1.48-.38-2.14-1.09-1.02-1.47-1-2.23.37-1.47,1.05-2.11ZM2565.44,1090.81l-3.79-4,18.81-17.83,3.79,4-18.81,17.83Z"/>
        <path class="cls-12" d="M2586.55,1113.07l-3.81-4.01,11.57-10.97c1.45-1.38,2.26-2.69,2.42-3.96s-.36-2.53-1.56-3.8c-1.6-1.69-3.27-2.45-5.01-2.29s-3.78,1.36-6.13,3.58l-9.37,8.88-3.79-4,18.81-17.83,2.97,3.13-1.93,2.9.19.2c1.43-.28,2.89-.13,4.36.45s2.82,1.51,4.02,2.78c4.28,4.51,4.12,8.95-.47,13.3l-12.26,11.63Z"/>
        <path class="cls-12" d="M2625.7,1116.69l-2.19,2.08-3.64-2.65c-.12.67-.37,1.38-.77,2.12s-.92,1.42-1.56,2.03c-1.94,1.84-4.1,2.62-6.48,2.33s-4.68-1.6-6.91-3.95c-.57-.6-1.04-1.19-1.41-1.76-1.35-.36-2.38-.2-3.1.48-.43.41-.56.92-.4,1.52s.76,1.45,1.78,2.53l3.11,3.28c1.97,2.08,3.02,4.07,3.16,5.99s-.63,3.66-2.3,5.24c-2.13,2.02-4.61,2.7-7.43,2.04s-5.81-2.65-8.96-5.98c-2.43-2.56-3.83-4.95-4.2-7.16s.28-4.11,1.96-5.7c1.16-1.1,2.48-1.65,3.96-1.67s3,.49,4.55,1.51c-.28-.75-.33-1.53-.15-2.36s.54-1.5,1.1-2.03c.7-.67,1.49-1.03,2.35-1.1s1.9.07,3.12.4c-.5-1.37-.57-2.81-.2-4.32s1.19-2.86,2.46-4.06c2.04-1.94,4.23-2.79,6.58-2.57s4.64,1.52,6.9,3.91c.51.53,1,1.13,1.48,1.78s.82,1.17,1.02,1.54l6.18,6.51ZM2589.95,1122.51c-.86.82-1.16,1.83-.89,3.05s1.07,2.53,2.41,3.94c2.06,2.18,3.91,3.5,5.55,3.98s2.97.22,4-.76c.82-.77,1.12-1.62.91-2.53s-1.06-2.16-2.57-3.75l-2.87-3.03c-1.09-1.15-2.22-1.8-3.4-1.96s-2.23.19-3.15,1.06ZM2607.22,1109.4c-1.18,1.12-1.8,2.28-1.86,3.49s.45,2.38,1.52,3.51c2.19,2.31,4.53,2.3,7-.05,1.22-1.16,1.9-2.34,2.02-3.54s-.37-2.39-1.48-3.55-2.26-1.72-3.48-1.69-2.46.64-3.72,1.83Z"/>
      </g>
      <text class="cls-15" transform="translate(0 829.5)"><tspan x="0" y="0">Application has been </tspan><tspan x="0" y="81">suggested through </tspan><tspan x="0" y="162">freinds, app stores, </tspan><tspan x="0" y="243">or counters.</tspan></text>
      <text class="cls-15" transform="translate(754.97 840.09)"><tspan x="0" y="0">A crucial part to attract </tspan><tspan x="0" y="81">and adverstise Cos </tspan><tspan x="0" y="162">outstanding products</tspan></text>
      <text class="cls-15" transform="translate(2929.46 809.33)"><tspan x="0" y="0">C/S and IT play a big part </tspan><tspan x="0" y="81">in this roles where UX </tspan><tspan x="0" y="162">should assist them. </tspan></text>
      <text class="cls-15" transform="translate(2936.63 330.15)"><tspan x="0" y="0">Good user flow sucessfully </tspan><tspan x="0" y="81">attracted and habitualized </tspan><tspan x="0" y="162">users to make financial </tspan><tspan x="0" y="243">decision with Cos.</tspan></text>
      <text class="cls-15" transform="translate(4077.87 330.15)"><tspan x="0" y="0">Happy users should </tspan><tspan x="0" y="81">have a way to suggest </tspan><tspan x="0" y="162">friends through </tspan><tspan x="0" y="243">products at this phase</tspan></text>
      <text class="cls-15" transform="translate(2929.46 1400.35)"><tspan x="0" y="0">Although not often, small </tspan><tspan x="0" y="81">issues can cause users to </tspan><tspan x="0" y="162">say good bye.</tspan></text>
    </g>
  </g>
</svg>