<svg width="1427" height="772" viewBox="0 0 1427 772" fill="none" xmlns="http://www.w3.org/2000/svg">
<path d="M704 0L704 685" stroke="#BAC3D2" stroke-width="2" stroke-dasharray="12 12"/>
<path d="M1 0L0.999968 685" stroke="#BAC3D2" stroke-width="2" stroke-dasharray="12 12"/>
<path d="M768 0L768 685" stroke="#BAC3D2" stroke-width="2" stroke-dasharray="12 12"/>
<path d="M65 0L65 685" stroke="#BAC3D2" stroke-width="2" stroke-dasharray="12 12"/>
<path d="M832 0L832 685" stroke="#BAC3D2" stroke-width="2" stroke-dasharray="12 12"/>
<path d="M129 0L129 685" stroke="#BAC3D2" stroke-width="2" stroke-dasharray="12 12"/>
<path d="M896 0L896 685" stroke="#BAC3D2" stroke-width="2" stroke-dasharray="12 12"/>
<path d="M193 0L193 685" stroke="#BAC3D2" stroke-width="2" stroke-dasharray="12 12"/>
<path d="M960 0L960 685" stroke="#BAC3D2" stroke-width="2" stroke-dasharray="12 12"/>
<path d="M257 0L257 685" stroke="#BAC3D2" stroke-width="2" stroke-dasharray="12 12"/>
<path d="M1024 0L1024 685" stroke="#BAC3D2" stroke-width="2" stroke-dasharray="12 12"/>
<path d="M321 0L321 685" stroke="#BAC3D2" stroke-width="2" stroke-dasharray="12 12"/>
<path d="M1088 0L1088 685" stroke="#BAC3D2" stroke-width="2" stroke-dasharray="12 12"/>
<path d="M385 0L385 685" stroke="#BAC3D2" stroke-width="2" stroke-dasharray="12 12"/>
<path d="M1152 0L1152 685" stroke="#BAC3D2" stroke-width="2" stroke-dasharray="12 12"/>
<path d="M449 0L449 685" stroke="#BAC3D2" stroke-width="2" stroke-dasharray="12 12"/>
<path d="M1216 0L1216 685" stroke="#BAC3D2" stroke-width="2" stroke-dasharray="12 12"/>
<path d="M513 0L513 685" stroke="#BAC3D2" stroke-width="2" stroke-dasharray="12 12"/>
<path d="M1280 0L1280 685" stroke="#BAC3D2" stroke-width="2" stroke-dasharray="12 12"/>
<path d="M576 0L576 685" stroke="#BAC3D2" stroke-width="2" stroke-dasharray="12 12"/>
<path d="M639.5 65L1247.5 65C1265.17 65 1279.5 79.3269 1279.5 97V97C1279.5 114.673 1265.17 129 1247.5 129L639.5 129L639.5 65Z" fill="#37445B"/>
<path d="M641 227L364 227C346.327 227 332 212.673 332 195V195C332 177.327 346.327 163 364 163L641 163L641 227Z" fill="#FFAF0A"/>
<path d="M641 421L498 421C480.327 421 466 406.673 466 389V389C466 371.327 480.327 357 498 357L641 357L641 421Z" fill="#FFAF0A"/>
<path d="M641 621L608 621C590.327 621 576 606.673 576 589V589C576 571.327 590.327 557 608 557L641 557L641 621Z" fill="#FFAF0A"/>
<path d="M639 260L1089 260C1106.67 260 1121 274.327 1121 292V292C1121 309.673 1106.67 324 1089 324L639 324L639 260Z" fill="#37445B"/>
<path d="M639 456L1031 456C1048.67 456 1063 470.327 1063 488V488C1063 505.673 1048.67 520 1031 520L639 520L639 456Z" fill="#37445B"/>
<path d="M830.186 108.884C827.967 108.884 826.026 108.393 824.362 107.412C822.698 106.431 821.397 105.076 820.458 103.348C819.519 101.599 819.05 99.5827 819.05 97.3C819.05 95.0173 819.519 93.012 820.458 91.284C821.397 89.5347 822.698 88.1693 824.362 87.188C826.026 86.2067 827.967 85.716 830.186 85.716C832.405 85.716 834.346 86.2067 836.01 87.188C837.674 88.1693 838.965 89.5347 839.882 91.284C840.821 93.012 841.29 95.0173 841.29 97.3C841.29 99.5827 840.821 101.599 839.882 103.348C838.965 105.076 837.674 106.431 836.01 107.412C834.346 108.393 832.405 108.884 830.186 108.884ZM830.186 105.844C831.722 105.844 833.055 105.503 834.186 104.82C835.338 104.137 836.234 103.156 836.874 101.876C837.514 100.596 837.834 99.0707 837.834 97.3C837.834 95.5293 837.514 94.004 836.874 92.724C836.234 91.444 835.338 90.4627 834.186 89.78C833.055 89.0973 831.722 88.756 830.186 88.756C828.65 88.756 827.306 89.0973 826.154 89.78C825.002 90.4627 824.106 91.444 823.466 92.724C822.847 94.004 822.538 95.5293 822.538 97.3C822.538 99.0707 822.847 100.596 823.466 101.876C824.106 103.156 825.002 104.137 826.154 104.82C827.306 105.503 828.65 105.844 830.186 105.844ZM844.941 108.5V92.628H847.949L848.205 95.412C848.696 94.4307 849.41 93.6627 850.349 93.108C851.309 92.532 852.408 92.244 853.645 92.244C855.565 92.244 857.069 92.8413 858.157 94.036C859.266 95.2307 859.821 97.012 859.821 99.38V108.5H856.461V99.732C856.461 96.66 855.202 95.124 852.685 95.124C851.426 95.124 850.381 95.572 849.549 96.468C848.738 97.364 848.333 98.644 848.333 100.308V108.5H844.941ZM863.816 108.5V85.46H867.208V108.5H863.816ZM873.423 89.62C872.783 89.62 872.25 89.428 871.823 89.044C871.418 88.6387 871.215 88.1373 871.215 87.54C871.215 86.9427 871.418 86.452 871.823 86.068C872.25 85.6627 872.783 85.46 873.423 85.46C874.063 85.46 874.586 85.6627 874.991 86.068C875.418 86.452 875.631 86.9427 875.631 87.54C875.631 88.1373 875.418 88.6387 874.991 89.044C874.586 89.428 874.063 89.62 873.423 89.62ZM871.727 108.5V92.628H875.119V108.5H871.727ZM879.597 108.5V92.628H882.605L882.861 95.412C883.352 94.4307 884.066 93.6627 885.005 93.108C885.965 92.532 887.064 92.244 888.301 92.244C890.221 92.244 891.725 92.8413 892.813 94.036C893.922 95.2307 894.477 97.012 894.477 99.38V108.5H891.117V99.732C891.117 96.66 889.858 95.124 887.341 95.124C886.082 95.124 885.037 95.572 884.205 96.468C883.394 97.364 882.989 98.644 882.989 100.308V108.5H879.597ZM905.896 108.884C904.339 108.884 902.952 108.543 901.736 107.86C900.541 107.156 899.603 106.185 898.92 104.948C898.237 103.711 897.896 102.271 897.896 100.628C897.896 98.964 898.227 97.5027 898.888 96.244C899.571 94.9853 900.509 94.004 901.704 93.3C902.92 92.596 904.328 92.244 905.928 92.244C907.485 92.244 908.84 92.596 909.992 93.3C911.144 93.9827 912.04 94.9 912.68 96.052C913.32 97.204 913.64 98.4733 913.64 99.86C913.64 100.073 913.629 100.308 913.608 100.564C913.608 100.799 913.597 101.065 913.576 101.364H901.224C901.331 102.9 901.832 104.073 902.728 104.884C903.645 105.673 904.701 106.068 905.896 106.068C906.856 106.068 907.656 105.855 908.296 105.428C908.957 104.98 909.448 104.383 909.768 103.636H913.16C912.733 105.129 911.88 106.377 910.6 107.38C909.341 108.383 907.773 108.884 905.896 108.884ZM905.896 95.028C904.765 95.028 903.763 95.3693 902.888 96.052C902.013 96.7133 901.48 97.716 901.288 99.06H910.248C910.184 97.8227 909.747 96.8413 908.936 96.116C908.125 95.3907 907.112 95.028 905.896 95.028ZM930.598 108.5V88.852H923.974V86.1H940.582V88.852H933.99V108.5H930.598ZM941.941 108.5V92.628H944.981L945.269 95.636C945.824 94.5907 946.592 93.7693 947.573 93.172C948.576 92.5533 949.781 92.244 951.189 92.244V95.796H950.261C949.322 95.796 948.48 95.956 947.733 96.276C947.008 96.5747 946.421 97.0973 945.973 97.844C945.546 98.5693 945.333 99.5827 945.333 100.884V108.5H941.941ZM959.473 108.884C958.129 108.884 957.02 108.66 956.145 108.212C955.27 107.764 954.62 107.177 954.193 106.452C953.766 105.705 953.553 104.895 953.553 104.02C953.553 102.484 954.15 101.268 955.345 100.372C956.54 99.476 958.246 99.028 960.465 99.028H964.625V98.74C964.625 97.5027 964.284 96.5747 963.601 95.956C962.94 95.3373 962.076 95.028 961.009 95.028C960.07 95.028 959.249 95.2627 958.545 95.732C957.862 96.18 957.446 96.852 957.297 97.748H953.905C954.012 96.596 954.396 95.6147 955.057 94.804C955.74 93.972 956.593 93.3427 957.617 92.916C958.662 92.468 959.804 92.244 961.041 92.244C963.26 92.244 964.977 92.8307 966.193 94.004C967.409 95.156 968.017 96.7347 968.017 98.74V108.5H965.073L964.785 105.78C964.337 106.655 963.686 107.391 962.833 107.988C961.98 108.585 960.86 108.884 959.473 108.884ZM960.145 106.132C961.062 106.132 961.83 105.919 962.449 105.492C963.089 105.044 963.58 104.457 963.921 103.732C964.284 103.007 964.508 102.207 964.593 101.332H960.817C959.473 101.332 958.513 101.567 957.937 102.036C957.382 102.505 957.105 103.092 957.105 103.796C957.105 104.521 957.372 105.097 957.905 105.524C958.46 105.929 959.206 106.132 960.145 106.132ZM971.972 108.5V92.628H974.98L975.236 95.412C975.727 94.4307 976.441 93.6627 977.38 93.108C978.34 92.532 979.439 92.244 980.676 92.244C982.596 92.244 984.1 92.8413 985.188 94.036C986.297 95.2307 986.852 97.012 986.852 99.38V108.5H983.492V99.732C983.492 96.66 982.233 95.124 979.716 95.124C978.457 95.124 977.412 95.572 976.58 96.468C975.769 97.364 975.364 98.644 975.364 100.308V108.5H971.972ZM997.183 108.884C995.178 108.884 993.524 108.393 992.223 107.412C990.922 106.431 990.175 105.129 989.983 103.508H993.407C993.578 104.233 993.983 104.863 994.623 105.396C995.263 105.908 996.106 106.164 997.151 106.164C998.175 106.164 998.922 105.951 999.391 105.524C999.86 105.097 1000.1 104.607 1000.1 104.052C1000.1 103.241 999.764 102.697 999.103 102.42C998.463 102.121 997.567 101.855 996.415 101.62C995.519 101.428 994.623 101.172 993.727 100.852C992.852 100.532 992.116 100.084 991.519 99.508C990.943 98.9107 990.655 98.1107 990.655 97.108C990.655 95.7213 991.188 94.5693 992.255 93.652C993.322 92.7133 994.815 92.244 996.735 92.244C998.506 92.244 999.935 92.6707 1001.02 93.524C1002.13 94.3773 1002.78 95.5827 1002.98 97.14H999.711C999.604 96.4573 999.284 95.924 998.751 95.54C998.239 95.156 997.546 94.964 996.671 94.964C995.818 94.964 995.156 95.1453 994.687 95.508C994.218 95.8493 993.983 96.2973 993.983 96.852C993.983 97.4067 994.303 97.844 994.943 98.164C995.604 98.484 996.468 98.772 997.535 99.028C998.602 99.2627 999.583 99.54 1000.48 99.86C1001.4 100.159 1002.13 100.607 1002.69 101.204C1003.24 101.801 1003.52 102.676 1003.52 103.828C1003.54 105.279 1002.98 106.484 1001.82 107.444C1000.69 108.404 999.146 108.884 997.183 108.884ZM1012.6 108.884C1011.25 108.884 1010.14 108.66 1009.27 108.212C1008.4 107.764 1007.74 107.177 1007.32 106.452C1006.89 105.705 1006.68 104.895 1006.68 104.02C1006.68 102.484 1007.28 101.268 1008.47 100.372C1009.66 99.476 1011.37 99.028 1013.59 99.028H1017.75V98.74C1017.75 97.5027 1017.41 96.5747 1016.73 95.956C1016.06 95.3373 1015.2 95.028 1014.13 95.028C1013.2 95.028 1012.37 95.2627 1011.67 95.732C1010.99 96.18 1010.57 96.852 1010.42 97.748H1007.03C1007.14 96.596 1007.52 95.6147 1008.18 94.804C1008.86 93.972 1009.72 93.3427 1010.74 92.916C1011.79 92.468 1012.93 92.244 1014.17 92.244C1016.38 92.244 1018.1 92.8307 1019.32 94.004C1020.53 95.156 1021.14 96.7347 1021.14 98.74V108.5H1018.2L1017.91 105.78C1017.46 106.655 1016.81 107.391 1015.96 107.988C1015.1 108.585 1013.98 108.884 1012.6 108.884ZM1013.27 106.132C1014.19 106.132 1014.96 105.919 1015.57 105.492C1016.21 105.044 1016.7 104.457 1017.05 103.732C1017.41 103.007 1017.63 102.207 1017.72 101.332H1013.94C1012.6 101.332 1011.64 101.567 1011.06 102.036C1010.51 102.505 1010.23 103.092 1010.23 103.796C1010.23 104.521 1010.5 105.097 1011.03 105.524C1011.58 105.929 1012.33 106.132 1013.27 106.132ZM1032.62 108.884C1031.06 108.884 1029.66 108.532 1028.43 107.828C1027.21 107.124 1026.25 106.153 1025.55 104.916C1024.86 103.657 1024.52 102.207 1024.52 100.564C1024.52 98.9213 1024.86 97.4813 1025.55 96.244C1026.25 94.9853 1027.21 94.004 1028.43 93.3C1029.66 92.596 1031.06 92.244 1032.62 92.244C1034.58 92.244 1036.22 92.756 1037.55 93.78C1038.89 94.804 1039.75 96.1907 1040.14 97.94H1036.59C1036.37 97.0653 1035.9 96.3827 1035.18 95.892C1034.45 95.4013 1033.6 95.156 1032.62 95.156C1031.79 95.156 1031.02 95.3693 1030.31 95.796C1029.61 96.2013 1029.04 96.8093 1028.62 97.62C1028.19 98.4093 1027.98 99.3907 1027.98 100.564C1027.98 101.737 1028.19 102.729 1028.62 103.54C1029.04 104.329 1029.61 104.937 1030.31 105.364C1031.02 105.791 1031.79 106.004 1032.62 106.004C1033.6 106.004 1034.45 105.759 1035.18 105.268C1035.9 104.777 1036.37 104.084 1036.59 103.188H1040.14C1039.77 104.895 1038.92 106.271 1037.58 107.316C1036.23 108.361 1034.58 108.884 1032.62 108.884ZM1050.16 108.5C1048.6 108.5 1047.36 108.127 1046.45 107.38C1045.53 106.612 1045.07 105.257 1045.07 103.316V95.476H1042.35V92.628H1045.07L1045.49 88.596H1048.46V92.628H1052.94V95.476H1048.46V103.316C1048.46 104.191 1048.64 104.799 1049.01 105.14C1049.39 105.46 1050.04 105.62 1050.96 105.62H1052.78V108.5H1050.16ZM1058.36 89.62C1057.72 89.62 1057.19 89.428 1056.76 89.044C1056.36 88.6387 1056.15 88.1373 1056.15 87.54C1056.15 86.9427 1056.36 86.452 1056.76 86.068C1057.19 85.6627 1057.72 85.46 1058.36 85.46C1059 85.46 1059.52 85.6627 1059.93 86.068C1060.36 86.452 1060.57 86.9427 1060.57 87.54C1060.57 88.1373 1060.36 88.6387 1059.93 89.044C1059.52 89.428 1059 89.62 1058.36 89.62ZM1056.66 108.5V92.628H1060.06V108.5H1056.66ZM1071.96 108.884C1070.44 108.884 1069.08 108.543 1067.86 107.86C1066.67 107.156 1065.72 106.185 1065.01 104.948C1064.31 103.689 1063.96 102.228 1063.96 100.564C1063.96 98.9 1064.31 97.4493 1065.01 96.212C1065.74 94.9533 1066.71 93.9827 1067.93 93.3C1069.14 92.596 1070.5 92.244 1071.99 92.244C1073.51 92.244 1074.86 92.596 1076.05 93.3C1077.27 93.9827 1078.23 94.9533 1078.93 96.212C1079.66 97.4493 1080.02 98.9 1080.02 100.564C1080.02 102.228 1079.66 103.689 1078.93 104.948C1078.23 106.185 1077.27 107.156 1076.05 107.86C1074.84 108.543 1073.47 108.884 1071.96 108.884ZM1071.96 105.972C1072.77 105.972 1073.52 105.769 1074.2 105.364C1074.9 104.959 1075.47 104.361 1075.89 103.572C1076.32 102.761 1076.53 101.759 1076.53 100.564C1076.53 99.3693 1076.32 98.3773 1075.89 97.588C1075.49 96.7773 1074.93 96.1693 1074.23 95.764C1073.55 95.3587 1072.8 95.156 1071.99 95.156C1071.18 95.156 1070.42 95.3587 1069.72 95.764C1069.04 96.1693 1068.48 96.7773 1068.05 97.588C1067.63 98.3773 1067.41 99.3693 1067.41 100.564C1067.41 101.759 1067.63 102.761 1068.05 103.572C1068.48 104.361 1069.04 104.959 1069.72 105.364C1070.4 105.769 1071.15 105.972 1071.96 105.972ZM1083.69 108.5V92.628H1086.7L1086.95 95.412C1087.45 94.4307 1088.16 93.6627 1089.1 93.108C1090.06 92.532 1091.16 92.244 1092.39 92.244C1094.31 92.244 1095.82 92.8413 1096.91 94.036C1098.02 95.2307 1098.57 97.012 1098.57 99.38V108.5H1095.21V99.732C1095.21 96.66 1093.95 95.124 1091.43 95.124C1090.18 95.124 1089.13 95.572 1088.3 96.468C1087.49 97.364 1087.08 98.644 1087.08 100.308V108.5H1083.69Z" fill="white"/>
<path d="M1308.58 100.704C1307.94 100.704 1307.36 100.597 1306.85 100.384C1306.34 100.149 1305.86 99.8933 1305.41 99.616C1304.98 99.3387 1304.56 99.0933 1304.13 98.88C1303.7 98.6667 1303.25 98.56 1302.78 98.56C1301.61 98.56 1300.92 99.264 1300.7 100.672H1297.66C1298.01 98.6667 1298.65 97.216 1299.58 96.32C1300.52 95.4027 1301.66 94.944 1303.01 94.944C1303.67 94.944 1304.26 95.0507 1304.77 95.264C1305.3 95.4773 1305.78 95.7227 1306.21 96C1306.66 96.2773 1307.09 96.5227 1307.52 96.736C1307.95 96.9493 1308.38 97.056 1308.83 97.056C1309.39 97.056 1309.85 96.8747 1310.21 96.512C1310.57 96.1493 1310.8 95.6267 1310.88 94.944H1313.95C1313.63 96.9493 1313 98.4107 1312.06 99.328C1311.13 100.245 1309.96 100.704 1308.58 100.704ZM1319.59 108V90.272L1315.91 91.136V88L1321.32 85.6H1323.85V108H1319.59ZM1337.38 108.384C1335.31 108.384 1333.54 107.904 1332.06 106.944C1330.59 105.963 1329.45 104.608 1328.64 102.88C1327.85 101.131 1327.46 99.104 1327.46 96.8C1327.46 94.5173 1327.85 92.5013 1328.64 90.752C1329.45 89.0027 1330.59 87.648 1332.06 86.688C1333.54 85.7067 1335.31 85.216 1337.38 85.216C1339.44 85.216 1341.22 85.7067 1342.69 86.688C1344.16 87.648 1345.29 89.0027 1346.08 90.752C1346.89 92.5013 1347.3 94.5173 1347.3 96.8C1347.3 99.104 1346.89 101.131 1346.08 102.88C1345.29 104.608 1344.16 105.963 1342.69 106.944C1341.22 107.904 1339.44 108.384 1337.38 108.384ZM1337.38 104.704C1339.06 104.704 1340.44 104 1341.5 102.592C1342.57 101.184 1343.1 99.2533 1343.1 96.8C1343.1 94.3467 1342.57 92.416 1341.5 91.008C1340.44 89.6 1339.06 88.896 1337.38 88.896C1335.67 88.896 1334.28 89.6 1333.22 91.008C1332.17 92.416 1331.65 94.3467 1331.65 96.8C1331.65 99.2533 1332.17 101.184 1333.22 102.592C1334.28 104 1335.67 104.704 1337.38 104.704ZM1360.09 108.384C1358.03 108.384 1356.25 107.904 1354.78 106.944C1353.31 105.963 1352.17 104.608 1351.36 102.88C1350.57 101.131 1350.17 99.104 1350.17 96.8C1350.17 94.5173 1350.57 92.5013 1351.36 90.752C1352.17 89.0027 1353.31 87.648 1354.78 86.688C1356.25 85.7067 1358.03 85.216 1360.09 85.216C1362.16 85.216 1363.93 85.7067 1365.41 86.688C1366.88 87.648 1368.01 89.0027 1368.8 90.752C1369.61 92.5013 1370.01 94.5173 1370.01 96.8C1370.01 99.104 1369.61 101.131 1368.8 102.88C1368.01 104.608 1366.88 105.963 1365.41 106.944C1363.93 107.904 1362.16 108.384 1360.09 108.384ZM1360.09 104.704C1361.78 104.704 1363.16 104 1364.22 102.592C1365.29 101.184 1365.82 99.2533 1365.82 96.8C1365.82 94.3467 1365.29 92.416 1364.22 91.008C1363.16 89.6 1361.78 88.896 1360.09 88.896C1358.39 88.896 1357 89.6 1355.93 91.008C1354.89 92.416 1354.37 94.3467 1354.37 96.8C1354.37 99.2533 1354.89 101.184 1355.93 102.592C1357 104 1358.39 104.704 1360.09 104.704ZM1378.24 96.608C1377.21 96.608 1376.29 96.384 1375.45 95.936C1374.62 95.4667 1373.96 94.8053 1373.47 93.952C1372.98 93.0987 1372.73 92.0853 1372.73 90.912C1372.73 89.7387 1372.98 88.7253 1373.47 87.872C1373.96 87.0187 1374.62 86.368 1375.45 85.92C1376.29 85.4507 1377.22 85.216 1378.27 85.216C1379.29 85.216 1380.21 85.4507 1381.02 85.92C1381.85 86.368 1382.51 87.0187 1383.01 87.872C1383.5 88.7253 1383.74 89.7387 1383.74 90.912C1383.74 92.0853 1383.5 93.0987 1383.01 93.952C1382.51 94.8053 1381.85 95.4667 1381.02 95.936C1380.19 96.384 1379.26 96.608 1378.24 96.608ZM1377.02 108L1389.66 85.6H1393.66L1381.02 108H1377.02ZM1378.24 93.76C1378.86 93.76 1379.39 93.5253 1379.84 93.056C1380.29 92.5653 1380.51 91.8507 1380.51 90.912C1380.51 89.9733 1380.29 89.2587 1379.84 88.768C1379.41 88.2773 1378.88 88.032 1378.24 88.032C1377.6 88.032 1377.05 88.2773 1376.61 88.768C1376.18 89.2587 1375.97 89.9733 1375.97 90.912C1375.97 91.8507 1376.18 92.5653 1376.61 93.056C1377.05 93.5253 1377.6 93.76 1378.24 93.76ZM1392.57 108.384C1391.55 108.384 1390.62 108.16 1389.79 107.712C1388.96 107.243 1388.3 106.581 1387.81 105.728C1387.31 104.875 1387.07 103.861 1387.07 102.688C1387.07 101.515 1387.31 100.512 1387.81 99.68C1388.3 98.8267 1388.96 98.176 1389.79 97.728C1390.62 97.2587 1391.56 97.024 1392.61 97.024C1393.63 97.024 1394.55 97.2587 1395.36 97.728C1396.19 98.176 1396.85 98.8267 1397.34 99.68C1397.83 100.512 1398.08 101.515 1398.08 102.688C1398.08 103.861 1397.83 104.875 1397.34 105.728C1396.85 106.581 1396.19 107.243 1395.36 107.712C1394.55 108.16 1393.62 108.384 1392.57 108.384ZM1392.57 105.536C1393.21 105.536 1393.75 105.301 1394.17 104.832C1394.62 104.341 1394.85 103.627 1394.85 102.688C1394.85 101.749 1394.62 101.035 1394.17 100.544C1393.75 100.053 1393.21 99.808 1392.57 99.808C1391.93 99.808 1391.39 100.053 1390.94 100.544C1390.51 101.035 1390.3 101.749 1390.3 102.688C1390.3 103.627 1390.51 104.341 1390.94 104.832C1391.39 105.301 1391.93 105.536 1392.57 105.536Z" fill="#37445B"/>
<path d="M1155.42 303L1163.87 284.088H1152.83V280.6H1168.1V283.512L1159.68 303H1155.42ZM1178.49 303.384C1176.85 303.384 1175.43 303.096 1174.23 302.52C1173.06 301.944 1172.13 301.155 1171.45 300.152C1170.79 299.128 1170.4 297.976 1170.3 296.696H1174.3C1174.49 297.613 1174.96 298.381 1175.71 299C1176.45 299.597 1177.38 299.896 1178.49 299.896C1179.68 299.896 1180.65 299.459 1181.4 298.584C1182.17 297.709 1182.55 296.621 1182.55 295.32C1182.55 293.976 1182.17 292.909 1181.4 292.12C1180.65 291.331 1179.71 290.936 1178.55 290.936C1177.59 290.936 1176.76 291.171 1176.06 291.64C1175.35 292.109 1174.85 292.696 1174.55 293.4H1170.62L1172.54 280.6H1184.95V284.184H1175.61L1174.59 289.368C1175.05 288.856 1175.69 288.44 1176.51 288.12C1177.32 287.779 1178.22 287.608 1179.23 287.608C1180.83 287.608 1182.16 287.971 1183.23 288.696C1184.29 289.4 1185.1 290.339 1185.66 291.512C1186.21 292.664 1186.49 293.923 1186.49 295.288C1186.49 296.845 1186.15 298.232 1185.47 299.448C1184.8 300.664 1183.87 301.624 1182.65 302.328C1181.45 303.032 1180.07 303.384 1178.49 303.384ZM1194.91 291.608C1193.89 291.608 1192.96 291.384 1192.12 290.936C1191.29 290.467 1190.63 289.805 1190.14 288.952C1189.65 288.099 1189.41 287.085 1189.41 285.912C1189.41 284.739 1189.65 283.725 1190.14 282.872C1190.63 282.019 1191.29 281.368 1192.12 280.92C1192.96 280.451 1193.9 280.216 1194.94 280.216C1195.97 280.216 1196.88 280.451 1197.69 280.92C1198.53 281.368 1199.19 282.019 1199.68 282.872C1200.17 283.725 1200.41 284.739 1200.41 285.912C1200.41 287.085 1200.17 288.099 1199.68 288.952C1199.19 289.805 1198.53 290.467 1197.69 290.936C1196.86 291.384 1195.93 291.608 1194.91 291.608ZM1193.69 303L1206.33 280.6H1210.33L1197.69 303H1193.69ZM1194.91 288.76C1195.53 288.76 1196.06 288.525 1196.51 288.056C1196.96 287.565 1197.18 286.851 1197.18 285.912C1197.18 284.973 1196.96 284.259 1196.51 283.768C1196.08 283.277 1195.55 283.032 1194.91 283.032C1194.27 283.032 1193.73 283.277 1193.28 283.768C1192.85 284.259 1192.64 284.973 1192.64 285.912C1192.64 286.851 1192.85 287.565 1193.28 288.056C1193.73 288.525 1194.27 288.76 1194.91 288.76ZM1209.25 303.384C1208.22 303.384 1207.29 303.16 1206.46 302.712C1205.63 302.243 1204.97 301.581 1204.48 300.728C1203.99 299.875 1203.74 298.861 1203.74 297.688C1203.74 296.515 1203.99 295.512 1204.48 294.68C1204.97 293.827 1205.63 293.176 1206.46 292.728C1207.29 292.259 1208.23 292.024 1209.28 292.024C1210.3 292.024 1211.22 292.259 1212.03 292.728C1212.86 293.176 1213.52 293.827 1214.01 294.68C1214.5 295.512 1214.75 296.515 1214.75 297.688C1214.75 298.861 1214.5 299.875 1214.01 300.728C1213.52 301.581 1212.86 302.243 1212.03 302.712C1211.22 303.16 1210.29 303.384 1209.25 303.384ZM1209.25 300.536C1209.89 300.536 1210.42 300.301 1210.85 299.832C1211.29 299.341 1211.52 298.627 1211.52 297.688C1211.52 296.749 1211.29 296.035 1210.85 295.544C1210.42 295.053 1209.89 294.808 1209.25 294.808C1208.61 294.808 1208.06 295.053 1207.61 295.544C1207.19 296.035 1206.97 296.749 1206.97 297.688C1206.97 298.627 1207.19 299.341 1207.61 299.832C1208.06 300.301 1208.61 300.536 1209.25 300.536Z" fill="#37445B"/>
<path d="M267.213 206V201.84H256.173V198.576L266.669 183.6H271.309V198.288H274.253V201.84H271.309V206H267.213ZM260.557 198.288H267.469V188.112L260.557 198.288ZM285.889 206.384C284.204 206.384 282.785 206.075 281.633 205.456C280.481 204.837 279.553 204.005 278.849 202.96C278.145 201.915 277.633 200.752 277.313 199.472C277.014 198.192 276.865 196.88 276.865 195.536C276.865 193.04 277.217 190.875 277.921 189.04C278.625 187.184 279.638 185.755 280.961 184.752C282.284 183.728 283.884 183.216 285.761 183.216C287.297 183.216 288.598 183.525 289.665 184.144C290.753 184.741 291.596 185.531 292.193 186.512C292.79 187.493 293.142 188.549 293.249 189.68H289.441C289.249 188.699 288.833 187.941 288.193 187.408C287.553 186.875 286.732 186.608 285.729 186.608C284.3 186.608 283.148 187.269 282.273 188.592C281.398 189.893 280.929 191.888 280.865 194.576C281.377 193.701 282.145 192.976 283.169 192.4C284.193 191.824 285.334 191.536 286.593 191.536C287.83 191.536 288.993 191.835 290.081 192.432C291.169 193.029 292.044 193.872 292.705 194.96C293.388 196.048 293.729 197.328 293.729 198.8C293.729 200.144 293.398 201.392 292.737 202.544C292.097 203.696 291.18 204.624 289.985 205.328C288.812 206.032 287.446 206.384 285.889 206.384ZM285.665 202.864C286.86 202.864 287.841 202.501 288.609 201.776C289.398 201.029 289.793 200.091 289.793 198.96C289.793 197.765 289.398 196.805 288.609 196.08C287.82 195.355 286.817 194.992 285.601 194.992C284.812 194.992 284.097 195.173 283.457 195.536C282.838 195.877 282.348 196.347 281.985 196.944C281.622 197.52 281.441 198.171 281.441 198.896C281.441 200.048 281.836 200.997 282.625 201.744C283.436 202.491 284.449 202.864 285.665 202.864ZM302.081 194.608C301.057 194.608 300.129 194.384 299.297 193.936C298.465 193.467 297.804 192.805 297.313 191.952C296.822 191.099 296.577 190.085 296.577 188.912C296.577 187.739 296.822 186.725 297.313 185.872C297.804 185.019 298.465 184.368 299.297 183.92C300.129 183.451 301.068 183.216 302.113 183.216C303.137 183.216 304.054 183.451 304.865 183.92C305.697 184.368 306.358 185.019 306.849 185.872C307.34 186.725 307.585 187.739 307.585 188.912C307.585 190.085 307.34 191.099 306.849 191.952C306.358 192.805 305.697 193.467 304.865 193.936C304.033 194.384 303.105 194.608 302.081 194.608ZM300.865 206L313.505 183.6H317.505L304.865 206H300.865ZM302.081 191.76C302.7 191.76 303.233 191.525 303.681 191.056C304.129 190.565 304.353 189.851 304.353 188.912C304.353 187.973 304.129 187.259 303.681 186.768C303.254 186.277 302.721 186.032 302.081 186.032C301.441 186.032 300.897 186.277 300.449 186.768C300.022 187.259 299.809 187.973 299.809 188.912C299.809 189.851 300.022 190.565 300.449 191.056C300.897 191.525 301.441 191.76 302.081 191.76ZM316.417 206.384C315.393 206.384 314.465 206.16 313.633 205.712C312.801 205.243 312.14 204.581 311.649 203.728C311.158 202.875 310.913 201.861 310.913 200.688C310.913 199.515 311.158 198.512 311.649 197.68C312.14 196.827 312.801 196.176 313.633 195.728C314.465 195.259 315.404 195.024 316.449 195.024C317.473 195.024 318.39 195.259 319.201 195.728C320.033 196.176 320.694 196.827 321.185 197.68C321.676 198.512 321.921 199.515 321.921 200.688C321.921 201.861 321.676 202.875 321.185 203.728C320.694 204.581 320.033 205.243 319.201 205.712C318.39 206.16 317.462 206.384 316.417 206.384ZM316.417 203.536C317.057 203.536 317.59 203.301 318.017 202.832C318.465 202.341 318.689 201.627 318.689 200.688C318.689 199.749 318.465 199.035 318.017 198.544C317.59 198.053 317.057 197.808 316.417 197.808C315.777 197.808 315.233 198.053 314.785 198.544C314.358 199.035 314.145 199.749 314.145 200.688C314.145 201.627 314.358 202.341 314.785 202.832C315.233 203.301 315.777 203.536 316.417 203.536Z" fill="#37445B"/>
<path d="M387.132 401V398.024C388.497 396.893 389.82 395.773 391.1 394.664C392.401 393.555 393.553 392.456 394.556 391.368C395.58 390.28 396.391 389.224 396.988 388.2C397.607 387.155 397.916 386.141 397.916 385.16C397.916 384.243 397.66 383.432 397.148 382.728C396.657 382.024 395.836 381.672 394.684 381.672C393.511 381.672 392.625 382.056 392.028 382.824C391.431 383.592 391.132 384.52 391.132 385.608H387.164C387.207 383.965 387.569 382.6 388.252 381.512C388.935 380.403 389.841 379.581 390.972 379.048C392.103 378.493 393.372 378.216 394.78 378.216C397.063 378.216 398.833 378.845 400.092 380.104C401.372 381.341 402.012 382.952 402.012 384.936C402.012 386.173 401.724 387.379 401.148 388.552C400.593 389.725 399.857 390.856 398.94 391.944C398.023 393.032 397.031 394.056 395.964 395.016C394.897 395.955 393.863 396.829 392.86 397.64H402.556V401H387.132ZM406.956 401L415.404 382.088H404.364V378.6H419.628V381.512L411.212 401H406.956ZM427.378 389.608C426.354 389.608 425.426 389.384 424.594 388.936C423.762 388.467 423.1 387.805 422.61 386.952C422.119 386.099 421.874 385.085 421.874 383.912C421.874 382.739 422.119 381.725 422.61 380.872C423.1 380.019 423.762 379.368 424.594 378.92C425.426 378.451 426.364 378.216 427.41 378.216C428.434 378.216 429.351 378.451 430.162 378.92C430.994 379.368 431.655 380.019 432.146 380.872C432.636 381.725 432.882 382.739 432.882 383.912C432.882 385.085 432.636 386.099 432.146 386.952C431.655 387.805 430.994 388.467 430.162 388.936C429.33 389.384 428.402 389.608 427.378 389.608ZM426.162 401L438.802 378.6H442.802L430.162 401H426.162ZM427.378 386.76C427.996 386.76 428.53 386.525 428.978 386.056C429.426 385.565 429.65 384.851 429.65 383.912C429.65 382.973 429.426 382.259 428.978 381.768C428.551 381.277 428.018 381.032 427.378 381.032C426.738 381.032 426.194 381.277 425.746 381.768C425.319 382.259 425.106 382.973 425.106 383.912C425.106 384.851 425.319 385.565 425.746 386.056C426.194 386.525 426.738 386.76 427.378 386.76ZM441.714 401.384C440.69 401.384 439.762 401.16 438.93 400.712C438.098 400.243 437.436 399.581 436.946 398.728C436.455 397.875 436.21 396.861 436.21 395.688C436.21 394.515 436.455 393.512 436.946 392.68C437.436 391.827 438.098 391.176 438.93 390.728C439.762 390.259 440.7 390.024 441.746 390.024C442.77 390.024 443.687 390.259 444.498 390.728C445.33 391.176 445.991 391.827 446.482 392.68C446.972 393.512 447.218 394.515 447.218 395.688C447.218 396.861 446.972 397.875 446.482 398.728C445.991 399.581 445.33 400.243 444.498 400.712C443.687 401.16 442.759 401.384 441.714 401.384ZM441.714 398.536C442.354 398.536 442.887 398.301 443.314 397.832C443.762 397.341 443.986 396.627 443.986 395.688C443.986 394.749 443.762 394.035 443.314 393.544C442.887 393.053 442.354 392.808 441.714 392.808C441.074 392.808 440.53 393.053 440.082 393.544C439.655 394.035 439.442 394.749 439.442 395.688C439.442 396.627 439.655 397.341 440.082 397.832C440.53 398.301 441.074 398.536 441.714 398.536Z" fill="#37445B"/>
<path d="M341.73 602.384C340.173 602.384 338.861 602.085 337.794 601.488C336.728 600.869 335.896 600.069 335.298 599.088C334.701 598.107 334.349 597.051 334.242 595.92H338.05C338.221 596.901 338.626 597.659 339.266 598.192C339.928 598.725 340.76 598.992 341.762 598.992C343.192 598.992 344.344 598.341 345.218 597.04C346.093 595.717 346.562 593.712 346.626 591.024C346.114 591.899 345.336 592.624 344.29 593.2C343.266 593.776 342.136 594.064 340.898 594.064C339.661 594.064 338.498 593.765 337.41 593.168C336.322 592.571 335.437 591.728 334.754 590.64C334.072 589.552 333.73 588.272 333.73 586.8C333.73 585.456 334.061 584.208 334.722 583.056C335.384 581.904 336.301 580.976 337.474 580.272C338.648 579.568 340.024 579.216 341.602 579.216C343.288 579.216 344.706 579.525 345.858 580.144C347.01 580.763 347.928 581.595 348.61 582.64C349.314 583.685 349.816 584.848 350.114 586.128C350.434 587.408 350.594 588.72 350.594 590.064C350.594 592.56 350.242 594.736 349.538 596.592C348.856 598.427 347.842 599.856 346.498 600.88C345.176 601.883 343.586 602.384 341.73 602.384ZM341.858 590.608C342.648 590.608 343.362 590.437 344.002 590.096C344.642 589.733 345.144 589.264 345.506 588.688C345.869 588.091 346.05 587.429 346.05 586.704C346.05 585.552 345.645 584.603 344.834 583.856C344.045 583.109 343.042 582.736 341.826 582.736C340.632 582.736 339.64 583.109 338.85 583.856C338.061 584.581 337.666 585.509 337.666 586.64C337.666 587.835 338.061 588.795 338.85 589.52C339.64 590.245 340.642 590.608 341.858 590.608ZM358.972 590.608C357.948 590.608 357.02 590.384 356.188 589.936C355.356 589.467 354.694 588.805 354.204 587.952C353.713 587.099 353.468 586.085 353.468 584.912C353.468 583.739 353.713 582.725 354.204 581.872C354.694 581.019 355.356 580.368 356.188 579.92C357.02 579.451 357.958 579.216 359.004 579.216C360.028 579.216 360.945 579.451 361.756 579.92C362.588 580.368 363.249 581.019 363.74 581.872C364.23 582.725 364.476 583.739 364.476 584.912C364.476 586.085 364.23 587.099 363.74 587.952C363.249 588.805 362.588 589.467 361.756 589.936C360.924 590.384 359.996 590.608 358.972 590.608ZM357.756 602L370.396 579.6H374.396L361.756 602H357.756ZM358.972 587.76C359.59 587.76 360.124 587.525 360.572 587.056C361.02 586.565 361.244 585.851 361.244 584.912C361.244 583.973 361.02 583.259 360.572 582.768C360.145 582.277 359.612 582.032 358.972 582.032C358.332 582.032 357.788 582.277 357.34 582.768C356.913 583.259 356.7 583.973 356.7 584.912C356.7 585.851 356.913 586.565 357.34 587.056C357.788 587.525 358.332 587.76 358.972 587.76ZM373.308 602.384C372.284 602.384 371.356 602.16 370.524 601.712C369.692 601.243 369.03 600.581 368.54 599.728C368.049 598.875 367.804 597.861 367.804 596.688C367.804 595.515 368.049 594.512 368.54 593.68C369.03 592.827 369.692 592.176 370.524 591.728C371.356 591.259 372.294 591.024 373.34 591.024C374.364 591.024 375.281 591.259 376.092 591.728C376.924 592.176 377.585 592.827 378.076 593.68C378.566 594.512 378.812 595.515 378.812 596.688C378.812 597.861 378.566 598.875 378.076 599.728C377.585 600.581 376.924 601.243 376.092 601.712C375.281 602.16 374.353 602.384 373.308 602.384ZM373.308 599.536C373.948 599.536 374.481 599.301 374.908 598.832C375.356 598.341 375.58 597.627 375.58 596.688C375.58 595.749 375.356 595.035 374.908 594.544C374.481 594.053 373.948 593.808 373.308 593.808C372.668 593.808 372.124 594.053 371.676 594.544C371.249 595.035 371.036 595.749 371.036 596.688C371.036 597.627 371.249 598.341 371.676 598.832C372.124 599.301 372.668 599.536 373.308 599.536Z" fill="#37445B"/>
<path d="M1097.5 499.384C1095.81 499.384 1094.39 499.075 1093.24 498.456C1092.09 497.837 1091.16 497.005 1090.46 495.96C1089.75 494.915 1089.24 493.752 1088.92 492.472C1088.62 491.192 1088.47 489.88 1088.47 488.536C1088.47 486.04 1088.83 483.875 1089.53 482.04C1090.23 480.184 1091.25 478.755 1092.57 477.752C1093.89 476.728 1095.49 476.216 1097.37 476.216C1098.91 476.216 1100.21 476.525 1101.27 477.144C1102.36 477.741 1103.2 478.531 1103.8 479.512C1104.4 480.493 1104.75 481.549 1104.86 482.68H1101.05C1100.86 481.699 1100.44 480.941 1099.8 480.408C1099.16 479.875 1098.34 479.608 1097.34 479.608C1095.91 479.608 1094.76 480.269 1093.88 481.592C1093.01 482.893 1092.54 484.888 1092.47 487.576C1092.99 486.701 1093.75 485.976 1094.78 485.4C1095.8 484.824 1096.94 484.536 1098.2 484.536C1099.44 484.536 1100.6 484.835 1101.69 485.432C1102.78 486.029 1103.65 486.872 1104.31 487.96C1105 489.048 1105.34 490.328 1105.34 491.8C1105.34 493.144 1105.01 494.392 1104.35 495.544C1103.71 496.696 1102.79 497.624 1101.59 498.328C1100.42 499.032 1099.06 499.384 1097.5 499.384ZM1097.27 495.864C1098.47 495.864 1099.45 495.501 1100.22 494.776C1101.01 494.029 1101.4 493.091 1101.4 491.96C1101.4 490.765 1101.01 489.805 1100.22 489.08C1099.43 488.355 1098.43 487.992 1097.21 487.992C1096.42 487.992 1095.71 488.173 1095.07 488.536C1094.45 488.877 1093.96 489.347 1093.59 489.944C1093.23 490.52 1093.05 491.171 1093.05 491.896C1093.05 493.048 1093.44 493.997 1094.23 494.744C1095.04 495.491 1096.06 495.864 1097.27 495.864ZM1117.78 499.384C1116.09 499.384 1114.68 499.075 1113.52 498.456C1112.37 497.837 1111.44 497.005 1110.74 495.96C1110.04 494.915 1109.52 493.752 1109.2 492.472C1108.9 491.192 1108.76 489.88 1108.76 488.536C1108.76 486.04 1109.11 483.875 1109.81 482.04C1110.52 480.184 1111.53 478.755 1112.85 477.752C1114.17 476.728 1115.77 476.216 1117.65 476.216C1119.19 476.216 1120.49 476.525 1121.56 477.144C1122.64 477.741 1123.49 478.531 1124.08 479.512C1124.68 480.493 1125.03 481.549 1125.14 482.68H1121.33C1121.14 481.699 1120.72 480.941 1120.08 480.408C1119.44 479.875 1118.62 479.608 1117.62 479.608C1116.19 479.608 1115.04 480.269 1114.16 481.592C1113.29 482.893 1112.82 484.888 1112.76 487.576C1113.27 486.701 1114.04 485.976 1115.06 485.4C1116.08 484.824 1117.22 484.536 1118.48 484.536C1119.72 484.536 1120.88 484.835 1121.97 485.432C1123.06 486.029 1123.93 486.872 1124.6 487.96C1125.28 489.048 1125.62 490.328 1125.62 491.8C1125.62 493.144 1125.29 494.392 1124.63 495.544C1123.99 496.696 1123.07 497.624 1121.88 498.328C1120.7 499.032 1119.34 499.384 1117.78 499.384ZM1117.56 495.864C1118.75 495.864 1119.73 495.501 1120.5 494.776C1121.29 494.029 1121.68 493.091 1121.68 491.96C1121.68 490.765 1121.29 489.805 1120.5 489.08C1119.71 488.355 1118.71 487.992 1117.49 487.992C1116.7 487.992 1115.99 488.173 1115.35 488.536C1114.73 488.877 1114.24 489.347 1113.88 489.944C1113.51 490.52 1113.33 491.171 1113.33 491.896C1113.33 493.048 1113.73 493.997 1114.52 494.744C1115.33 495.491 1116.34 495.864 1117.56 495.864ZM1133.97 487.608C1132.95 487.608 1132.02 487.384 1131.19 486.936C1130.36 486.467 1129.69 485.805 1129.2 484.952C1128.71 484.099 1128.47 483.085 1128.47 481.912C1128.47 480.739 1128.71 479.725 1129.2 478.872C1129.69 478.019 1130.36 477.368 1131.19 476.92C1132.02 476.451 1132.96 476.216 1134 476.216C1135.03 476.216 1135.94 476.451 1136.76 476.92C1137.59 477.368 1138.25 478.019 1138.74 478.872C1139.23 479.725 1139.48 480.739 1139.48 481.912C1139.48 483.085 1139.23 484.099 1138.74 484.952C1138.25 485.805 1137.59 486.467 1136.76 486.936C1135.92 487.384 1135 487.608 1133.97 487.608ZM1132.76 499L1145.4 476.6H1149.4L1136.76 499H1132.76ZM1133.97 484.76C1134.59 484.76 1135.12 484.525 1135.57 484.056C1136.02 483.565 1136.24 482.851 1136.24 481.912C1136.24 480.973 1136.02 480.259 1135.57 479.768C1135.14 479.277 1134.61 479.032 1133.97 479.032C1133.33 479.032 1132.79 479.277 1132.34 479.768C1131.91 480.259 1131.7 480.973 1131.7 481.912C1131.7 482.851 1131.91 483.565 1132.34 484.056C1132.79 484.525 1133.33 484.76 1133.97 484.76ZM1148.31 499.384C1147.28 499.384 1146.36 499.16 1145.52 498.712C1144.69 498.243 1144.03 497.581 1143.54 496.728C1143.05 495.875 1142.8 494.861 1142.8 493.688C1142.8 492.515 1143.05 491.512 1143.54 490.68C1144.03 489.827 1144.69 489.176 1145.52 488.728C1146.36 488.259 1147.29 488.024 1148.34 488.024C1149.36 488.024 1150.28 488.259 1151.09 488.728C1151.92 489.176 1152.58 489.827 1153.08 490.68C1153.57 491.512 1153.81 492.515 1153.81 493.688C1153.81 494.861 1153.57 495.875 1153.08 496.728C1152.58 497.581 1151.92 498.243 1151.09 498.712C1150.28 499.16 1149.35 499.384 1148.31 499.384ZM1148.31 496.536C1148.95 496.536 1149.48 496.301 1149.91 495.832C1150.36 495.341 1150.58 494.627 1150.58 493.688C1150.58 492.749 1150.36 492.035 1149.91 491.544C1149.48 491.053 1148.95 490.808 1148.31 490.808C1147.67 490.808 1147.12 491.053 1146.68 491.544C1146.25 492.035 1146.04 492.749 1146.04 493.688C1146.04 494.627 1146.25 495.341 1146.68 495.832C1147.12 496.301 1147.67 496.536 1148.31 496.536Z" fill="#37445B"/>
<path d="M433.477 207.384C431.834 207.384 430.394 207.096 429.157 206.52C427.919 205.944 426.949 205.123 426.245 204.056C425.562 202.989 425.21 201.72 425.189 200.248H428.773C428.794 201.443 429.21 202.456 430.021 203.288C430.831 204.12 431.973 204.536 433.445 204.536C434.746 204.536 435.759 204.227 436.485 203.608C437.231 202.968 437.605 202.157 437.605 201.176C437.605 200.387 437.423 199.747 437.061 199.256C436.719 198.765 436.239 198.36 435.621 198.04C435.023 197.72 434.33 197.432 433.541 197.176C432.751 196.92 431.919 196.643 431.045 196.344C429.317 195.768 428.015 195.021 427.141 194.104C426.287 193.187 425.861 191.981 425.861 190.488C425.839 189.229 426.127 188.131 426.725 187.192C427.343 186.253 428.197 185.528 429.285 185.016C430.394 184.483 431.685 184.216 433.157 184.216C434.607 184.216 435.877 184.483 436.965 185.016C438.074 185.549 438.938 186.296 439.557 187.256C440.175 188.195 440.495 189.293 440.517 190.552H436.933C436.933 189.976 436.783 189.432 436.485 188.92C436.186 188.387 435.749 187.949 435.173 187.608C434.597 187.267 433.893 187.096 433.061 187.096C431.994 187.075 431.109 187.341 430.405 187.896C429.722 188.451 429.381 189.219 429.381 190.2C429.381 191.075 429.637 191.747 430.149 192.216C430.661 192.685 431.365 193.08 432.26 193.4C433.157 193.699 434.181 194.051 435.333 194.456C436.442 194.819 437.434 195.256 438.309 195.768C439.183 196.28 439.877 196.952 440.389 197.784C440.922 198.616 441.189 199.672 441.189 200.952C441.189 202.083 440.901 203.139 440.325 204.12C439.749 205.08 438.885 205.869 437.733 206.488C436.581 207.085 435.162 207.384 433.477 207.384ZM451.425 207C449.868 207 448.63 206.627 447.713 205.88C446.796 205.112 446.337 203.757 446.337 201.816V193.976H443.617V191.128H446.337L446.753 187.096H449.729V191.128H454.209V193.976H449.729V201.816C449.729 202.691 449.91 203.299 450.273 203.64C450.657 203.96 451.308 204.12 452.225 204.12H454.049V207H451.425ZM463.083 207.384C461.739 207.384 460.629 207.16 459.755 206.712C458.88 206.264 458.229 205.677 457.803 204.952C457.376 204.205 457.163 203.395 457.163 202.52C457.163 200.984 457.76 199.768 458.955 198.872C460.149 197.976 461.856 197.528 464.075 197.528H468.235V197.24C468.235 196.003 467.893 195.075 467.211 194.456C466.549 193.837 465.685 193.528 464.619 193.528C463.68 193.528 462.859 193.763 462.155 194.232C461.472 194.68 461.056 195.352 460.907 196.248H457.515C457.621 195.096 458.005 194.115 458.667 193.304C459.349 192.472 460.203 191.843 461.227 191.416C462.272 190.968 463.413 190.744 464.651 190.744C466.869 190.744 468.587 191.331 469.803 192.504C471.019 193.656 471.627 195.235 471.627 197.24V207H468.683L468.395 204.28C467.947 205.155 467.296 205.891 466.443 206.488C465.589 207.085 464.469 207.384 463.083 207.384ZM463.755 204.632C464.672 204.632 465.44 204.419 466.059 203.992C466.699 203.544 467.189 202.957 467.531 202.232C467.893 201.507 468.117 200.707 468.203 199.832H464.427C463.083 199.832 462.123 200.067 461.547 200.536C460.992 201.005 460.715 201.592 460.715 202.296C460.715 203.021 460.981 203.597 461.515 204.024C462.069 204.429 462.816 204.632 463.755 204.632ZM484.51 207.384C483.272 207.384 482.174 207.139 481.214 206.648C480.275 206.157 479.528 205.464 478.974 204.568L478.622 207H475.582V183.96H478.974V193.592C479.486 192.845 480.19 192.184 481.086 191.608C481.982 191.032 483.134 190.744 484.542 190.744C486.078 190.744 487.432 191.107 488.606 191.832C489.779 192.557 490.696 193.549 491.358 194.808C492.04 196.067 492.382 197.496 492.382 199.096C492.382 200.696 492.04 202.125 491.358 203.384C490.696 204.621 489.779 205.603 488.606 206.328C487.432 207.032 486.067 207.384 484.51 207.384ZM483.934 204.44C485.384 204.44 486.579 203.949 487.518 202.968C488.456 201.965 488.926 200.664 488.926 199.064C488.926 198.019 488.712 197.091 488.286 196.28C487.859 195.469 487.272 194.84 486.526 194.392C485.779 193.923 484.915 193.688 483.934 193.688C482.483 193.688 481.288 194.189 480.35 195.192C479.432 196.195 478.974 197.485 478.974 199.064C478.974 200.664 479.432 201.965 480.35 202.968C481.288 203.949 482.483 204.44 483.934 204.44ZM497.97 188.12C497.33 188.12 496.797 187.928 496.37 187.544C495.965 187.139 495.762 186.637 495.762 186.04C495.762 185.443 495.965 184.952 496.37 184.568C496.797 184.163 497.33 183.96 497.97 183.96C498.61 183.96 499.133 184.163 499.538 184.568C499.965 184.952 500.178 185.443 500.178 186.04C500.178 186.637 499.965 187.139 499.538 187.544C499.133 187.928 498.61 188.12 497.97 188.12ZM496.274 207V191.128H499.666V207H496.274ZM504.144 207V183.96H507.536V207H504.144ZM513.752 188.12C513.112 188.12 512.578 187.928 512.152 187.544C511.746 187.139 511.544 186.637 511.544 186.04C511.544 185.443 511.746 184.952 512.152 184.568C512.578 184.163 513.112 183.96 513.752 183.96C514.392 183.96 514.914 184.163 515.32 184.568C515.746 184.952 515.96 185.443 515.96 186.04C515.96 186.637 515.746 187.139 515.32 187.544C514.914 187.928 514.392 188.12 513.752 188.12ZM512.056 207V191.128H515.448V207H512.056ZM526.581 207C525.024 207 523.787 206.627 522.869 205.88C521.952 205.112 521.493 203.757 521.493 201.816V193.976H518.773V191.128H521.493L521.909 187.096H524.885V191.128H529.365V193.976H524.885V201.816C524.885 202.691 525.067 203.299 525.429 203.64C525.813 203.96 526.464 204.12 527.381 204.12H529.205V207H526.581ZM534.719 214.04L538.527 205.688H537.599L531.327 191.128H535.007L539.871 202.872L544.959 191.128H548.543L538.303 214.04H534.719Z" fill="#37445B"/>
<path d="M139.131 751V728.6H146.843C148.614 728.6 150.065 728.899 151.195 729.496C152.347 730.093 153.201 730.904 153.755 731.928C154.31 732.931 154.587 734.051 154.587 735.288C154.587 736.675 154.214 737.933 153.467 739.064C152.742 740.195 151.601 741.005 150.043 741.496L154.811 751H150.875L146.523 741.976H142.523V751H139.131ZM142.523 739.416H146.651C148.187 739.416 149.307 739.043 150.011 738.296C150.737 737.549 151.099 736.579 151.099 735.384C151.099 734.189 150.747 733.24 150.043 732.536C149.339 731.811 148.198 731.448 146.619 731.448H142.523V739.416ZM164.927 751.384C163.37 751.384 161.983 751.043 160.767 750.36C159.573 749.656 158.634 748.685 157.951 747.448C157.269 746.211 156.927 744.771 156.927 743.128C156.927 741.464 157.258 740.003 157.919 738.744C158.602 737.485 159.541 736.504 160.735 735.8C161.951 735.096 163.359 734.744 164.959 734.744C166.517 734.744 167.871 735.096 169.023 735.8C170.175 736.483 171.071 737.4 171.711 738.552C172.351 739.704 172.671 740.973 172.671 742.36C172.671 742.573 172.661 742.808 172.639 743.064C172.639 743.299 172.629 743.565 172.607 743.864H160.255C160.362 745.4 160.863 746.573 161.759 747.384C162.677 748.173 163.733 748.568 164.927 748.568C165.887 748.568 166.687 748.355 167.327 747.928C167.989 747.48 168.479 746.883 168.799 746.136H172.191C171.765 747.629 170.911 748.877 169.631 749.88C168.373 750.883 166.805 751.384 164.927 751.384ZM164.927 737.528C163.797 737.528 162.794 737.869 161.919 738.552C161.045 739.213 160.511 740.216 160.319 741.56H169.279C169.215 740.323 168.778 739.341 167.967 738.616C167.157 737.891 166.143 737.528 164.927 737.528ZM176.191 758.04V735.128H179.231L179.583 737.592C180.095 736.845 180.799 736.184 181.695 735.608C182.591 735.032 183.743 734.744 185.151 734.744C186.687 734.744 188.042 735.107 189.215 735.832C190.388 736.557 191.306 737.549 191.967 738.808C192.65 740.067 192.991 741.496 192.991 743.096C192.991 744.696 192.65 746.125 191.967 747.384C191.306 748.621 190.388 749.603 189.215 750.328C188.042 751.032 186.676 751.384 185.119 751.384C183.882 751.384 182.783 751.139 181.823 750.648C180.884 750.157 180.138 749.464 179.583 748.568V758.04H176.191ZM184.543 748.44C185.994 748.44 187.188 747.949 188.127 746.968C189.066 745.965 189.535 744.664 189.535 743.064C189.535 742.019 189.322 741.091 188.895 740.28C188.468 739.469 187.882 738.84 187.135 738.392C186.388 737.923 185.524 737.688 184.543 737.688C183.092 737.688 181.898 738.189 180.959 739.192C180.042 740.195 179.583 741.485 179.583 743.064C179.583 744.664 180.042 745.965 180.959 746.968C181.898 747.949 183.092 748.44 184.543 748.44ZM204.084 751.384C202.526 751.384 201.14 751.043 199.924 750.36C198.729 749.656 197.79 748.685 197.108 747.448C196.425 746.211 196.084 744.771 196.084 743.128C196.084 741.464 196.414 740.003 197.076 738.744C197.758 737.485 198.697 736.504 199.892 735.8C201.108 735.096 202.516 734.744 204.116 734.744C205.673 734.744 207.028 735.096 208.18 735.8C209.332 736.483 210.228 737.4 210.868 738.552C211.508 739.704 211.828 740.973 211.828 742.36C211.828 742.573 211.817 742.808 211.796 743.064C211.796 743.299 211.785 743.565 211.764 743.864H199.412C199.518 745.4 200.02 746.573 200.916 747.384C201.833 748.173 202.889 748.568 204.084 748.568C205.044 748.568 205.844 748.355 206.484 747.928C207.145 747.48 207.636 746.883 207.956 746.136H211.348C210.921 747.629 210.068 748.877 208.788 749.88C207.529 750.883 205.961 751.384 204.084 751.384ZM204.084 737.528C202.953 737.528 201.95 737.869 201.076 738.552C200.201 739.213 199.668 740.216 199.476 741.56H208.436C208.372 740.323 207.934 739.341 207.124 738.616C206.313 737.891 205.3 737.528 204.084 737.528ZM215.347 751V727.96H218.739V751H215.347ZM223.035 751V727.96H226.427V751H223.035ZM232.642 732.12C232.002 732.12 231.469 731.928 231.042 731.544C230.637 731.139 230.434 730.637 230.434 730.04C230.434 729.443 230.637 728.952 231.042 728.568C231.469 728.163 232.002 727.96 232.642 727.96C233.282 727.96 233.805 728.163 234.21 728.568C234.637 728.952 234.85 729.443 234.85 730.04C234.85 730.637 234.637 731.139 234.21 731.544C233.805 731.928 233.282 732.12 232.642 732.12ZM230.946 751V735.128H234.338V751H230.946ZM238.816 751V735.128H241.824L242.08 737.912C242.571 736.931 243.285 736.163 244.224 735.608C245.184 735.032 246.283 734.744 247.52 734.744C249.44 734.744 250.944 735.341 252.032 736.536C253.141 737.731 253.696 739.512 253.696 741.88V751H250.336V742.232C250.336 739.16 249.077 737.624 246.56 737.624C245.301 737.624 244.256 738.072 243.424 738.968C242.613 739.864 242.208 741.144 242.208 742.808V751H238.816ZM264.187 746.136C263.355 746.136 262.587 746.04 261.883 745.848L260.507 747.192C260.742 747.341 261.03 747.469 261.371 747.576C261.712 747.683 262.192 747.779 262.811 747.864C263.43 747.949 264.272 748.035 265.339 748.12C267.451 748.312 268.976 748.824 269.915 749.656C270.854 750.467 271.323 751.555 271.323 752.92C271.323 753.859 271.067 754.744 270.555 755.576C270.064 756.429 269.286 757.112 268.219 757.624C267.174 758.157 265.83 758.424 264.187 758.424C261.968 758.424 260.166 757.997 258.779 757.144C257.414 756.312 256.731 755.043 256.731 753.336C256.731 752.675 256.902 752.013 257.243 751.352C257.606 750.712 258.171 750.104 258.939 749.528C258.491 749.336 258.096 749.133 257.755 748.92C257.435 748.685 257.147 748.451 256.891 748.216V747.448L259.643 744.632C258.406 743.565 257.787 742.168 257.787 740.44C257.787 739.395 258.032 738.445 258.523 737.592C259.035 736.717 259.771 736.024 260.731 735.512C261.691 735 262.843 734.744 264.187 734.744C265.083 734.744 265.915 734.872 266.683 735.128H272.603V737.368L269.787 737.528C270.299 738.403 270.555 739.373 270.555 740.44C270.555 741.507 270.299 742.467 269.787 743.32C269.296 744.173 268.571 744.856 267.611 745.368C266.672 745.88 265.531 746.136 264.187 746.136ZM264.187 743.48C265.168 743.48 265.958 743.224 266.555 742.712C267.174 742.179 267.483 741.432 267.483 740.472C267.483 739.491 267.174 738.744 266.555 738.232C265.958 737.72 265.168 737.464 264.187 737.464C263.184 737.464 262.374 737.72 261.755 738.232C261.158 738.744 260.859 739.491 260.859 740.472C260.859 741.432 261.158 742.179 261.755 742.712C262.374 743.224 263.184 743.48 264.187 743.48ZM259.931 753.016C259.931 753.933 260.336 754.616 261.147 755.064C261.958 755.533 262.971 755.768 264.187 755.768C265.36 755.768 266.31 755.512 267.035 755C267.76 754.509 268.123 753.848 268.123 753.016C268.123 752.397 267.878 751.864 267.387 751.416C266.896 750.989 265.968 750.723 264.603 750.616C263.579 750.552 262.672 750.456 261.883 750.328C261.136 750.733 260.624 751.171 260.347 751.64C260.07 752.109 259.931 752.568 259.931 753.016ZM293.803 751.384C291.584 751.384 289.664 750.904 288.043 749.944C286.443 748.963 285.206 747.608 284.331 745.88C283.456 744.131 283.019 742.115 283.019 739.832C283.019 737.528 283.456 735.512 284.331 733.784C285.206 732.035 286.443 730.669 288.043 729.688C289.664 728.707 291.584 728.216 293.803 728.216C296.427 728.216 298.571 728.856 300.235 730.136C301.899 731.416 302.955 733.208 303.403 735.512H299.627C299.328 734.211 298.688 733.176 297.707 732.408C296.726 731.64 295.414 731.256 293.771 731.256C291.531 731.256 289.76 732.024 288.459 733.56C287.158 735.075 286.507 737.165 286.507 739.832C286.507 742.477 287.158 744.557 288.459 746.072C289.76 747.587 291.531 748.344 293.771 748.344C295.414 748.344 296.726 747.981 297.707 747.256C298.688 746.531 299.328 745.539 299.627 744.28H303.403C302.955 746.499 301.899 748.237 300.235 749.496C298.571 750.755 296.427 751.384 293.803 751.384ZM312.859 751.384C310.939 751.384 309.425 750.787 308.315 749.592C307.227 748.397 306.683 746.616 306.683 744.248V735.128H310.075V743.896C310.075 746.968 311.334 748.504 313.851 748.504C315.11 748.504 316.145 748.056 316.955 747.16C317.766 746.264 318.171 744.984 318.171 743.32V735.128H321.563V751H318.555L318.299 748.216C317.809 749.197 317.083 749.976 316.123 750.552C315.185 751.107 314.097 751.384 312.859 751.384ZM332.214 751.384C330.209 751.384 328.556 750.893 327.254 749.912C325.953 748.931 325.206 747.629 325.014 746.008H328.438C328.609 746.733 329.014 747.363 329.654 747.896C330.294 748.408 331.137 748.664 332.182 748.664C333.206 748.664 333.953 748.451 334.422 748.024C334.892 747.597 335.126 747.107 335.126 746.552C335.126 745.741 334.796 745.197 334.134 744.92C333.494 744.621 332.598 744.355 331.446 744.12C330.55 743.928 329.654 743.672 328.758 743.352C327.884 743.032 327.148 742.584 326.55 742.008C325.974 741.411 325.686 740.611 325.686 739.608C325.686 738.221 326.22 737.069 327.286 736.152C328.353 735.213 329.846 734.744 331.766 734.744C333.537 734.744 334.966 735.171 336.054 736.024C337.164 736.877 337.814 738.083 338.006 739.64H334.742C334.636 738.957 334.316 738.424 333.782 738.04C333.27 737.656 332.577 737.464 331.702 737.464C330.849 737.464 330.188 737.645 329.718 738.008C329.249 738.349 329.014 738.797 329.014 739.352C329.014 739.907 329.334 740.344 329.974 740.664C330.636 740.984 331.5 741.272 332.566 741.528C333.633 741.763 334.614 742.04 335.51 742.36C336.428 742.659 337.164 743.107 337.718 743.704C338.273 744.301 338.55 745.176 338.55 746.328C338.572 747.779 338.006 748.984 336.854 749.944C335.724 750.904 334.177 751.384 332.214 751.384ZM348.316 751C346.758 751 345.521 750.627 344.604 749.88C343.686 749.112 343.228 747.757 343.228 745.816V737.976H340.508V735.128H343.228L343.644 731.096H346.62V735.128H351.1V737.976H346.62V745.816C346.62 746.691 346.801 747.299 347.164 747.64C347.548 747.96 348.198 748.12 349.116 748.12H350.94V751H348.316ZM361.615 751.384C360.1 751.384 358.735 751.043 357.519 750.36C356.324 749.656 355.375 748.685 354.671 747.448C353.967 746.189 353.615 744.728 353.615 743.064C353.615 741.4 353.967 739.949 354.671 738.712C355.396 737.453 356.367 736.483 357.583 735.8C358.799 735.096 360.154 734.744 361.647 734.744C363.162 734.744 364.516 735.096 365.711 735.8C366.927 736.483 367.887 737.453 368.591 738.712C369.316 739.949 369.679 741.4 369.679 743.064C369.679 744.728 369.316 746.189 368.591 747.448C367.887 748.685 366.927 749.656 365.711 750.36C364.495 751.043 363.13 751.384 361.615 751.384ZM361.615 748.472C362.426 748.472 363.172 748.269 363.855 747.864C364.559 747.459 365.124 746.861 365.551 746.072C365.978 745.261 366.191 744.259 366.191 743.064C366.191 741.869 365.978 740.877 365.551 740.088C365.146 739.277 364.591 738.669 363.887 738.264C363.204 737.859 362.458 737.656 361.647 737.656C360.836 737.656 360.079 737.859 359.375 738.264C358.692 738.669 358.138 739.277 357.711 740.088C357.284 740.877 357.071 741.869 357.071 743.064C357.071 744.259 357.284 745.261 357.711 746.072C358.138 746.861 358.692 747.459 359.375 747.864C360.058 748.269 360.804 748.472 361.615 748.472ZM373.347 751V735.128H376.355L376.643 737.368C377.155 736.557 377.827 735.917 378.659 735.448C379.512 734.979 380.494 734.744 381.603 734.744C384.12 734.744 385.87 735.736 386.851 737.72C387.427 736.803 388.195 736.077 389.155 735.544C390.136 735.011 391.192 734.744 392.323 734.744C394.307 734.744 395.864 735.341 396.995 736.536C398.126 737.731 398.691 739.512 398.691 741.88V751H395.299V742.232C395.299 739.16 394.126 737.624 391.779 737.624C390.584 737.624 389.603 738.072 388.835 738.968C388.088 739.864 387.715 741.144 387.715 742.808V751H384.323V742.232C384.323 739.16 383.139 737.624 380.771 737.624C379.598 737.624 378.627 738.072 377.859 738.968C377.112 739.864 376.739 741.144 376.739 742.808V751H373.347ZM410.084 751.384C408.526 751.384 407.14 751.043 405.924 750.36C404.729 749.656 403.79 748.685 403.108 747.448C402.425 746.211 402.084 744.771 402.084 743.128C402.084 741.464 402.414 740.003 403.076 738.744C403.758 737.485 404.697 736.504 405.892 735.8C407.108 735.096 408.516 734.744 410.116 734.744C411.673 734.744 413.028 735.096 414.18 735.8C415.332 736.483 416.228 737.4 416.868 738.552C417.508 739.704 417.828 740.973 417.828 742.36C417.828 742.573 417.817 742.808 417.796 743.064C417.796 743.299 417.785 743.565 417.764 743.864H405.412C405.518 745.4 406.02 746.573 406.916 747.384C407.833 748.173 408.889 748.568 410.084 748.568C411.044 748.568 411.844 748.355 412.484 747.928C413.145 747.48 413.636 746.883 413.956 746.136H417.348C416.921 747.629 416.068 748.877 414.788 749.88C413.529 750.883 411.961 751.384 410.084 751.384ZM410.084 737.528C408.953 737.528 407.95 737.869 407.076 738.552C406.201 739.213 405.668 740.216 405.476 741.56H414.436C414.372 740.323 413.934 739.341 413.124 738.616C412.313 737.891 411.3 737.528 410.084 737.528ZM421.347 751V735.128H424.387L424.675 738.136C425.23 737.091 425.998 736.269 426.979 735.672C427.982 735.053 429.187 734.744 430.595 734.744V738.296H429.667C428.728 738.296 427.886 738.456 427.139 738.776C426.414 739.075 425.827 739.597 425.379 740.344C424.952 741.069 424.739 742.083 424.739 743.384V751H421.347ZM440.254 751L448.51 728.6H452.222L460.414 751H456.83L454.91 745.528H445.758L443.838 751H440.254ZM446.718 742.84H453.95L450.334 732.632L446.718 742.84ZM465.421 751L460.749 735.128H464.141L467.213 747.096L470.669 735.128H474.445L477.901 747.096L480.973 735.128H484.365L479.693 751H476.205L472.557 738.52L468.909 751H465.421ZM491.817 751.384C490.473 751.384 489.364 751.16 488.489 750.712C487.614 750.264 486.964 749.677 486.537 748.952C486.11 748.205 485.897 747.395 485.897 746.52C485.897 744.984 486.494 743.768 487.689 742.872C488.884 741.976 490.59 741.528 492.809 741.528H496.969V741.24C496.969 740.003 496.628 739.075 495.945 738.456C495.284 737.837 494.42 737.528 493.353 737.528C492.414 737.528 491.593 737.763 490.889 738.232C490.206 738.68 489.79 739.352 489.641 740.248H486.249C486.356 739.096 486.74 738.115 487.401 737.304C488.084 736.472 488.937 735.843 489.961 735.416C491.006 734.968 492.148 734.744 493.385 734.744C495.604 734.744 497.321 735.331 498.537 736.504C499.753 737.656 500.361 739.235 500.361 741.24V751H497.417L497.129 748.28C496.681 749.155 496.03 749.891 495.177 750.488C494.324 751.085 493.204 751.384 491.817 751.384ZM492.489 748.632C493.406 748.632 494.174 748.419 494.793 747.992C495.433 747.544 495.924 746.957 496.265 746.232C496.628 745.507 496.852 744.707 496.937 743.832H493.161C491.817 743.832 490.857 744.067 490.281 744.536C489.726 745.005 489.449 745.592 489.449 746.296C489.449 747.021 489.716 747.597 490.249 748.024C490.804 748.429 491.55 748.632 492.489 748.632ZM505.672 758.04L509.48 749.688H508.552L502.28 735.128H505.96L510.824 746.872L515.912 735.128H519.496L509.256 758.04H505.672Z" fill="#37445B"/>
<path d="M817.803 751V728.6H825.067C827.691 728.6 829.846 729.059 831.531 729.976C833.238 730.893 834.497 732.195 835.307 733.88C836.139 735.544 836.555 737.528 836.555 739.832C836.555 742.115 836.139 744.099 835.307 745.784C834.497 747.448 833.238 748.739 831.531 749.656C829.846 750.552 827.691 751 825.067 751H817.803ZM821.195 748.12H824.939C826.966 748.12 828.566 747.789 829.739 747.128C830.934 746.467 831.787 745.517 832.299 744.28C832.833 743.043 833.099 741.56 833.099 739.832C833.099 738.104 832.833 736.611 832.299 735.352C831.787 734.093 830.934 733.133 829.739 732.472C828.566 731.789 826.966 731.448 824.939 731.448H821.195V748.12ZM840.175 751V735.128H843.215L843.503 738.136C844.058 737.091 844.826 736.269 845.807 735.672C846.81 735.053 848.015 734.744 849.423 734.744V738.296H848.495C847.557 738.296 846.714 738.456 845.967 738.776C845.242 739.075 844.655 739.597 844.207 740.344C843.781 741.069 843.567 742.083 843.567 743.384V751H840.175ZM857.708 751.384C856.364 751.384 855.254 751.16 854.38 750.712C853.505 750.264 852.854 749.677 852.428 748.952C852.001 748.205 851.788 747.395 851.788 746.52C851.788 744.984 852.385 743.768 853.58 742.872C854.774 741.976 856.481 741.528 858.7 741.528H862.86V741.24C862.86 740.003 862.518 739.075 861.836 738.456C861.174 737.837 860.31 737.528 859.244 737.528C858.305 737.528 857.484 737.763 856.78 738.232C856.097 738.68 855.681 739.352 855.532 740.248H852.14C852.246 739.096 852.63 738.115 853.292 737.304C853.974 736.472 854.828 735.843 855.852 735.416C856.897 734.968 858.038 734.744 859.276 734.744C861.494 734.744 863.212 735.331 864.428 736.504C865.644 737.656 866.252 739.235 866.252 741.24V751H863.308L863.02 748.28C862.572 749.155 861.921 749.891 861.068 750.488C860.214 751.085 859.094 751.384 857.708 751.384ZM858.38 748.632C859.297 748.632 860.065 748.419 860.684 747.992C861.324 747.544 861.814 746.957 862.156 746.232C862.518 745.507 862.742 744.707 862.828 743.832H859.052C857.708 743.832 856.748 744.067 856.172 744.536C855.617 745.005 855.34 745.592 855.34 746.296C855.34 747.021 855.606 747.597 856.14 748.024C856.694 748.429 857.441 748.632 858.38 748.632ZM873.125 751L868.453 735.128H871.845L874.917 747.096L878.373 735.128H882.149L885.605 747.096L888.677 735.128H892.069L887.397 751H883.909L880.261 738.52L876.613 751H873.125ZM913.037 751.384C910.819 751.384 908.899 750.904 907.277 749.944C905.677 748.963 904.44 747.608 903.565 745.88C902.691 744.131 902.253 742.115 902.253 739.832C902.253 737.528 902.691 735.512 903.565 733.784C904.44 732.035 905.677 730.669 907.277 729.688C908.899 728.707 910.819 728.216 913.037 728.216C915.661 728.216 917.805 728.856 919.469 730.136C921.133 731.416 922.189 733.208 922.637 735.512H918.861C918.563 734.211 917.923 733.176 916.941 732.408C915.96 731.64 914.648 731.256 913.005 731.256C910.765 731.256 908.995 732.024 907.693 733.56C906.392 735.075 905.741 737.165 905.741 739.832C905.741 742.477 906.392 744.557 907.693 746.072C908.995 747.587 910.765 748.344 913.005 748.344C914.648 748.344 915.96 747.981 916.941 747.256C917.923 746.531 918.563 745.539 918.861 744.28H922.637C922.189 746.499 921.133 748.237 919.469 749.496C917.805 750.755 915.661 751.384 913.037 751.384ZM932.094 751.384C930.174 751.384 928.659 750.787 927.55 749.592C926.462 748.397 925.918 746.616 925.918 744.248V735.128H929.31V743.896C929.31 746.968 930.568 748.504 933.086 748.504C934.344 748.504 935.379 748.056 936.19 747.16C937 746.264 937.406 744.984 937.406 743.32V735.128H940.798V751H937.79L937.534 748.216C937.043 749.197 936.318 749.976 935.358 750.552C934.419 751.107 933.331 751.384 932.094 751.384ZM951.449 751.384C949.443 751.384 947.79 750.893 946.489 749.912C945.187 748.931 944.441 747.629 944.249 746.008H947.673C947.843 746.733 948.249 747.363 948.889 747.896C949.529 748.408 950.371 748.664 951.417 748.664C952.441 748.664 953.187 748.451 953.657 748.024C954.126 747.597 954.361 747.107 954.361 746.552C954.361 745.741 954.03 745.197 953.369 744.92C952.729 744.621 951.833 744.355 950.681 744.12C949.785 743.928 948.889 743.672 947.993 743.352C947.118 743.032 946.382 742.584 945.785 742.008C945.209 741.411 944.921 740.611 944.921 739.608C944.921 738.221 945.454 737.069 946.521 736.152C947.587 735.213 949.081 734.744 951.001 734.744C952.771 734.744 954.201 735.171 955.289 736.024C956.398 736.877 957.049 738.083 957.241 739.64H953.977C953.87 738.957 953.55 738.424 953.017 738.04C952.505 737.656 951.811 737.464 950.937 737.464C950.083 737.464 949.422 737.645 948.953 738.008C948.483 738.349 948.249 738.797 948.249 739.352C948.249 739.907 948.569 740.344 949.209 740.664C949.87 740.984 950.734 741.272 951.801 741.528C952.867 741.763 953.849 742.04 954.745 742.36C955.662 742.659 956.398 743.107 956.953 743.704C957.507 744.301 957.785 745.176 957.785 746.328C957.806 747.779 957.241 748.984 956.089 749.944C954.958 750.904 953.411 751.384 951.449 751.384ZM967.55 751C965.993 751 964.755 750.627 963.838 749.88C962.921 749.112 962.462 747.757 962.462 745.816V737.976H959.742V735.128H962.462L962.878 731.096H965.854V735.128H970.334V737.976H965.854V745.816C965.854 746.691 966.035 747.299 966.398 747.64C966.782 747.96 967.433 748.12 968.35 748.12H970.174V751H967.55ZM980.849 751.384C979.335 751.384 977.969 751.043 976.753 750.36C975.559 749.656 974.609 748.685 973.905 747.448C973.201 746.189 972.849 744.728 972.849 743.064C972.849 741.4 973.201 739.949 973.905 738.712C974.631 737.453 975.601 736.483 976.817 735.8C978.033 735.096 979.388 734.744 980.881 734.744C982.396 734.744 983.751 735.096 984.945 735.8C986.161 736.483 987.121 737.453 987.825 738.712C988.551 739.949 988.913 741.4 988.913 743.064C988.913 744.728 988.551 746.189 987.825 747.448C987.121 748.685 986.161 749.656 984.945 750.36C983.729 751.043 982.364 751.384 980.849 751.384ZM980.849 748.472C981.66 748.472 982.407 748.269 983.089 747.864C983.793 747.459 984.359 746.861 984.785 746.072C985.212 745.261 985.425 744.259 985.425 743.064C985.425 741.869 985.212 740.877 984.785 740.088C984.38 739.277 983.825 738.669 983.121 738.264C982.439 737.859 981.692 737.656 980.881 737.656C980.071 737.656 979.313 737.859 978.609 738.264C977.927 738.669 977.372 739.277 976.945 740.088C976.519 740.877 976.305 741.869 976.305 743.064C976.305 744.259 976.519 745.261 976.945 746.072C977.372 746.861 977.927 747.459 978.609 747.864C979.292 748.269 980.039 748.472 980.849 748.472ZM992.582 751V735.128H995.59L995.878 737.368C996.39 736.557 997.062 735.917 997.894 735.448C998.747 734.979 999.728 734.744 1000.84 734.744C1003.35 734.744 1005.1 735.736 1006.09 737.72C1006.66 736.803 1007.43 736.077 1008.39 735.544C1009.37 735.011 1010.43 734.744 1011.56 734.744C1013.54 734.744 1015.1 735.341 1016.23 736.536C1017.36 737.731 1017.93 739.512 1017.93 741.88V751H1014.53V742.232C1014.53 739.16 1013.36 737.624 1011.01 737.624C1009.82 737.624 1008.84 738.072 1008.07 738.968C1007.32 739.864 1006.95 741.144 1006.95 742.808V751H1003.56V742.232C1003.56 739.16 1002.37 737.624 1000.01 737.624C998.832 737.624 997.862 738.072 997.094 738.968C996.347 739.864 995.974 741.144 995.974 742.808V751H992.582ZM1029.32 751.384C1027.76 751.384 1026.37 751.043 1025.16 750.36C1023.96 749.656 1023.02 748.685 1022.34 747.448C1021.66 746.211 1021.32 744.771 1021.32 743.128C1021.32 741.464 1021.65 740.003 1022.31 738.744C1022.99 737.485 1023.93 736.504 1025.13 735.8C1026.34 735.096 1027.75 734.744 1029.35 734.744C1030.91 734.744 1032.26 735.096 1033.41 735.8C1034.57 736.483 1035.46 737.4 1036.1 738.552C1036.74 739.704 1037.06 740.973 1037.06 742.36C1037.06 742.573 1037.05 742.808 1037.03 743.064C1037.03 743.299 1037.02 743.565 1037 743.864H1024.65C1024.75 745.4 1025.25 746.573 1026.15 747.384C1027.07 748.173 1028.12 748.568 1029.32 748.568C1030.28 748.568 1031.08 748.355 1031.72 747.928C1032.38 747.48 1032.87 746.883 1033.19 746.136H1036.58C1036.16 747.629 1035.3 748.877 1034.02 749.88C1032.76 750.883 1031.2 751.384 1029.32 751.384ZM1029.32 737.528C1028.19 737.528 1027.18 737.869 1026.31 738.552C1025.44 739.213 1024.9 740.216 1024.71 741.56H1033.67C1033.61 740.323 1033.17 739.341 1032.36 738.616C1031.55 737.891 1030.53 737.528 1029.32 737.528ZM1040.58 751V735.128H1043.62L1043.91 738.136C1044.46 737.091 1045.23 736.269 1046.21 735.672C1047.22 735.053 1048.42 734.744 1049.83 734.744V738.296H1048.9C1047.96 738.296 1047.12 738.456 1046.37 738.776C1045.65 739.075 1045.06 739.597 1044.61 740.344C1044.19 741.069 1043.97 742.083 1043.97 743.384V751H1040.58ZM1060.93 751V728.6H1064.32V751H1060.93ZM1068.74 751V735.128H1071.75L1072 737.912C1072.49 736.931 1073.21 736.163 1074.15 735.608C1075.11 735.032 1076.2 734.744 1077.44 734.744C1079.36 734.744 1080.87 735.341 1081.95 736.536C1083.06 737.731 1083.62 739.512 1083.62 741.88V751H1080.26V742.232C1080.26 739.16 1079 737.624 1076.48 737.624C1075.22 737.624 1074.18 738.072 1073.35 738.968C1072.54 739.864 1072.13 741.144 1072.13 742.808V751H1068.74Z" fill="#37445B"/>
<path d="M522.219 401.384C520.619 401.384 519.168 401.075 517.867 400.456C516.587 399.816 515.563 398.845 514.795 397.544C514.048 396.243 513.674 394.589 513.674 392.584V378.6H517.067V392.616C517.067 394.579 517.536 396.019 518.475 396.936C519.413 397.853 520.683 398.312 522.283 398.312C523.861 398.312 525.12 397.853 526.059 396.936C526.997 396.019 527.467 394.579 527.467 392.616V378.6H530.859V392.584C530.859 394.589 530.464 396.243 529.675 397.544C528.907 398.845 527.861 399.816 526.539 400.456C525.237 401.075 523.797 401.384 522.219 401.384ZM534.09 401L541.002 389.672L534.026 378.6H537.898L543.178 386.984L548.106 378.6H551.914L544.97 389.832L552.01 401H548.138L542.826 392.552L537.898 401H534.09ZM553.957 404.296L561.957 376.328H565.285L557.253 404.296H553.957ZM576.781 401.384C575.181 401.384 573.73 401.075 572.429 400.456C571.149 399.816 570.125 398.845 569.357 397.544C568.61 396.243 568.237 394.589 568.237 392.584V378.6H571.629V392.616C571.629 394.579 572.098 396.019 573.037 396.936C573.976 397.853 575.245 398.312 576.845 398.312C578.424 398.312 579.682 397.853 580.621 396.936C581.56 396.019 582.029 394.579 582.029 392.616V378.6H585.421V392.584C585.421 394.589 585.026 396.243 584.237 397.544C583.469 398.845 582.424 399.816 581.101 400.456C579.8 401.075 578.36 401.384 576.781 401.384ZM589.772 401V378.6H593.164V401H589.772Z" fill="#37445B"/>
<path d="M390.006 600V577.6H394.006L401.59 592.512L409.142 577.6H413.142V600H409.75V583.456L402.902 596.8H400.278L393.398 583.488V600H390.006ZM422.942 600.384C421.598 600.384 420.489 600.16 419.614 599.712C418.739 599.264 418.089 598.677 417.662 597.952C417.235 597.205 417.022 596.395 417.022 595.52C417.022 593.984 417.619 592.768 418.814 591.872C420.009 590.976 421.715 590.528 423.934 590.528H428.094V590.24C428.094 589.003 427.753 588.075 427.07 587.456C426.409 586.837 425.545 586.528 424.478 586.528C423.539 586.528 422.718 586.763 422.014 587.232C421.331 587.68 420.915 588.352 420.766 589.248H417.374C417.481 588.096 417.865 587.115 418.526 586.304C419.209 585.472 420.062 584.843 421.086 584.416C422.131 583.968 423.273 583.744 424.51 583.744C426.729 583.744 428.446 584.331 429.662 585.504C430.878 586.656 431.486 588.235 431.486 590.24V600H428.542L428.254 597.28C427.806 598.155 427.155 598.891 426.302 599.488C425.449 600.085 424.329 600.384 422.942 600.384ZM423.614 597.632C424.531 597.632 425.299 597.419 425.918 596.992C426.558 596.544 427.049 595.957 427.39 595.232C427.753 594.507 427.977 593.707 428.062 592.832H424.286C422.942 592.832 421.982 593.067 421.406 593.536C420.851 594.005 420.574 594.592 420.574 595.296C420.574 596.021 420.841 596.597 421.374 597.024C421.929 597.429 422.675 597.632 423.614 597.632ZM435.441 600V576.96H438.833V600H435.441ZM443.928 600V586.976H441.656V584.128H443.928V581.824C443.928 580.096 444.355 578.859 445.208 578.112C446.083 577.344 447.31 576.96 448.888 576.96H450.552V579.84H449.4C448.654 579.84 448.12 580 447.8 580.32C447.48 580.619 447.32 581.131 447.32 581.856V584.128H450.968V586.976H447.32V600H443.928ZM460.047 600.384C458.127 600.384 456.612 599.787 455.503 598.592C454.415 597.397 453.871 595.616 453.871 593.248V584.128H457.263V592.896C457.263 595.968 458.522 597.504 461.039 597.504C462.298 597.504 463.332 597.056 464.143 596.16C464.954 595.264 465.359 593.984 465.359 592.32V584.128H468.751V600H465.743L465.487 597.216C464.996 598.197 464.271 598.976 463.311 599.552C462.372 600.107 461.284 600.384 460.047 600.384ZM473.066 600V584.128H476.074L476.33 586.912C476.821 585.931 477.535 585.163 478.474 584.608C479.434 584.032 480.533 583.744 481.77 583.744C483.69 583.744 485.194 584.341 486.282 585.536C487.391 586.731 487.946 588.512 487.946 590.88V600H484.586V591.232C484.586 588.16 483.327 586.624 480.81 586.624C479.551 586.624 478.506 587.072 477.674 587.968C476.863 588.864 476.458 590.144 476.458 591.808V600H473.066ZM499.461 600.384C497.904 600.384 496.506 600.032 495.269 599.328C494.053 598.624 493.093 597.653 492.389 596.416C491.706 595.157 491.365 593.707 491.365 592.064C491.365 590.421 491.706 588.981 492.389 587.744C493.093 586.485 494.053 585.504 495.269 584.8C496.506 584.096 497.904 583.744 499.461 583.744C501.424 583.744 503.066 584.256 504.389 585.28C505.733 586.304 506.597 587.691 506.981 589.44H503.429C503.216 588.565 502.746 587.883 502.021 587.392C501.296 586.901 500.442 586.656 499.461 586.656C498.629 586.656 497.861 586.869 497.157 587.296C496.453 587.701 495.888 588.309 495.461 589.12C495.034 589.909 494.821 590.891 494.821 592.064C494.821 593.237 495.034 594.229 495.461 595.04C495.888 595.829 496.453 596.437 497.157 596.864C497.861 597.291 498.629 597.504 499.461 597.504C500.442 597.504 501.296 597.259 502.021 596.768C502.746 596.277 503.216 595.584 503.429 594.688H506.981C506.618 596.395 505.765 597.771 504.421 598.816C503.077 599.861 501.424 600.384 499.461 600.384ZM517.003 600C515.446 600 514.208 599.627 513.291 598.88C512.374 598.112 511.915 596.757 511.915 594.816V586.976H509.195V584.128H511.915L512.331 580.096H515.307V584.128H519.787V586.976H515.307V594.816C515.307 595.691 515.488 596.299 515.851 596.64C516.235 596.96 516.886 597.12 517.803 597.12H519.627V600H517.003ZM525.205 581.12C524.565 581.12 524.031 580.928 523.605 580.544C523.199 580.139 522.997 579.637 522.997 579.04C522.997 578.443 523.199 577.952 523.605 577.568C524.031 577.163 524.565 576.96 525.205 576.96C525.845 576.96 526.367 577.163 526.773 577.568C527.199 577.952 527.413 578.443 527.413 579.04C527.413 579.637 527.199 580.139 526.773 580.544C526.367 580.928 525.845 581.12 525.205 581.12ZM523.509 600V584.128H526.901V600H523.509ZM538.802 600.384C537.288 600.384 535.922 600.043 534.706 599.36C533.512 598.656 532.562 597.685 531.858 596.448C531.154 595.189 530.802 593.728 530.802 592.064C530.802 590.4 531.154 588.949 531.858 587.712C532.584 586.453 533.554 585.483 534.77 584.8C535.986 584.096 537.341 583.744 538.834 583.744C540.349 583.744 541.704 584.096 542.898 584.8C544.114 585.483 545.074 586.453 545.778 587.712C546.504 588.949 546.866 590.4 546.866 592.064C546.866 593.728 546.504 595.189 545.778 596.448C545.074 597.685 544.114 598.656 542.898 599.36C541.682 600.043 540.317 600.384 538.802 600.384ZM538.802 597.472C539.613 597.472 540.36 597.269 541.042 596.864C541.746 596.459 542.312 595.861 542.738 595.072C543.165 594.261 543.378 593.259 543.378 592.064C543.378 590.869 543.165 589.877 542.738 589.088C542.333 588.277 541.778 587.669 541.074 587.264C540.392 586.859 539.645 586.656 538.834 586.656C538.024 586.656 537.266 586.859 536.562 587.264C535.88 587.669 535.325 588.277 534.898 589.088C534.472 589.877 534.258 590.869 534.258 592.064C534.258 593.259 534.472 594.261 534.898 595.072C535.325 595.861 535.88 596.459 536.562 596.864C537.245 597.269 537.992 597.472 538.802 597.472ZM550.535 600V584.128H553.543L553.799 586.912C554.289 585.931 555.004 585.163 555.943 584.608C556.903 584.032 558.001 583.744 559.239 583.744C561.159 583.744 562.663 584.341 563.751 585.536C564.86 586.731 565.415 588.512 565.415 590.88V600H562.055V591.232C562.055 588.16 560.796 586.624 558.279 586.624C557.02 586.624 555.975 587.072 555.143 587.968C554.332 588.864 553.927 590.144 553.927 591.808V600H550.535Z" fill="#37445B"/>
<path d="M757.662 304.384C755.444 304.384 753.524 303.904 751.902 302.944C750.302 301.963 749.065 300.608 748.19 298.88C747.316 297.131 746.878 295.115 746.878 292.832C746.878 290.528 747.316 288.512 748.19 286.784C749.065 285.035 750.302 283.669 751.902 282.688C753.524 281.707 755.444 281.216 757.662 281.216C760.286 281.216 762.43 281.856 764.094 283.136C765.758 284.416 766.814 286.208 767.262 288.512H763.486C763.188 287.211 762.548 286.176 761.566 285.408C760.585 284.64 759.273 284.256 757.63 284.256C755.39 284.256 753.62 285.024 752.318 286.56C751.017 288.075 750.366 290.165 750.366 292.832C750.366 295.477 751.017 297.557 752.318 299.072C753.62 300.587 755.39 301.344 757.63 301.344C759.273 301.344 760.585 300.981 761.566 300.256C762.548 299.531 763.188 298.539 763.486 297.28H767.262C766.814 299.499 765.758 301.237 764.094 302.496C762.43 303.755 760.286 304.384 757.662 304.384ZM770.863 304V280.96H774.255V290.688C774.788 289.771 775.524 289.056 776.463 288.544C777.423 288.011 778.479 287.744 779.631 287.744C781.529 287.744 783.023 288.341 784.111 289.536C785.199 290.731 785.743 292.512 785.743 294.88V304H782.383V295.232C782.383 292.16 781.156 290.624 778.703 290.624C777.423 290.624 776.356 291.072 775.503 291.968C774.671 292.864 774.255 294.144 774.255 295.808V304H770.863ZM797.162 304.384C795.604 304.384 794.218 304.043 793.002 303.36C791.807 302.656 790.868 301.685 790.186 300.448C789.503 299.211 789.162 297.771 789.162 296.128C789.162 294.464 789.492 293.003 790.154 291.744C790.836 290.485 791.775 289.504 792.97 288.8C794.186 288.096 795.594 287.744 797.194 287.744C798.751 287.744 800.106 288.096 801.258 288.8C802.41 289.483 803.306 290.4 803.946 291.552C804.586 292.704 804.906 293.973 804.906 295.36C804.906 295.573 804.895 295.808 804.874 296.064C804.874 296.299 804.863 296.565 804.842 296.864H792.49C792.596 298.4 793.098 299.573 793.994 300.384C794.911 301.173 795.967 301.568 797.162 301.568C798.122 301.568 798.922 301.355 799.562 300.928C800.223 300.48 800.714 299.883 801.034 299.136H804.426C803.999 300.629 803.146 301.877 801.866 302.88C800.607 303.883 799.039 304.384 797.162 304.384ZM797.162 290.528C796.031 290.528 795.028 290.869 794.154 291.552C793.279 292.213 792.746 293.216 792.554 294.56H801.514C801.45 293.323 801.012 292.341 800.202 291.616C799.391 290.891 798.378 290.528 797.162 290.528ZM815.945 304.384C814.388 304.384 812.991 304.032 811.753 303.328C810.537 302.624 809.577 301.653 808.873 300.416C808.191 299.157 807.849 297.707 807.849 296.064C807.849 294.421 808.191 292.981 808.873 291.744C809.577 290.485 810.537 289.504 811.753 288.8C812.991 288.096 814.388 287.744 815.945 287.744C817.908 287.744 819.551 288.256 820.873 289.28C822.217 290.304 823.081 291.691 823.465 293.44H819.913C819.7 292.565 819.231 291.883 818.505 291.392C817.78 290.901 816.927 290.656 815.945 290.656C815.113 290.656 814.345 290.869 813.641 291.296C812.937 291.701 812.372 292.309 811.945 293.12C811.519 293.909 811.305 294.891 811.305 296.064C811.305 297.237 811.519 298.229 811.945 299.04C812.372 299.829 812.937 300.437 813.641 300.864C814.345 301.291 815.113 301.504 815.945 301.504C816.927 301.504 817.78 301.259 818.505 300.768C819.231 300.277 819.7 299.584 819.913 298.688H823.465C823.103 300.395 822.249 301.771 820.905 302.816C819.561 303.861 817.908 304.384 815.945 304.384ZM827.144 304V280.96H830.536V294.688L836.616 288.128H840.68L833.928 295.328L841.672 304H837.384L830.536 295.872V304H827.144ZM846.22 285.12C845.58 285.12 845.047 284.928 844.62 284.544C844.215 284.139 844.012 283.637 844.012 283.04C844.012 282.443 844.215 281.952 844.62 281.568C845.047 281.163 845.58 280.96 846.22 280.96C846.86 280.96 847.383 281.163 847.788 281.568C848.215 281.952 848.428 282.443 848.428 283.04C848.428 283.637 848.215 284.139 847.788 284.544C847.383 284.928 846.86 285.12 846.22 285.12ZM844.524 304V288.128H847.916V304H844.524ZM852.394 304V288.128H855.402L855.658 290.912C856.149 289.931 856.863 289.163 857.802 288.608C858.762 288.032 859.861 287.744 861.098 287.744C863.018 287.744 864.522 288.341 865.61 289.536C866.719 290.731 867.274 292.512 867.274 294.88V304H863.914V295.232C863.914 292.16 862.655 290.624 860.138 290.624C858.879 290.624 857.834 291.072 857.002 291.968C856.191 292.864 855.786 294.144 855.786 295.808V304H852.394ZM877.765 299.136C876.933 299.136 876.165 299.04 875.461 298.848L874.085 300.192C874.32 300.341 874.608 300.469 874.949 300.576C875.29 300.683 875.77 300.779 876.389 300.864C877.008 300.949 877.85 301.035 878.917 301.12C881.029 301.312 882.554 301.824 883.493 302.656C884.432 303.467 884.901 304.555 884.901 305.92C884.901 306.859 884.645 307.744 884.133 308.576C883.642 309.429 882.864 310.112 881.797 310.624C880.752 311.157 879.408 311.424 877.765 311.424C875.546 311.424 873.744 310.997 872.357 310.144C870.992 309.312 870.309 308.043 870.309 306.336C870.309 305.675 870.48 305.013 870.821 304.352C871.184 303.712 871.749 303.104 872.517 302.528C872.069 302.336 871.674 302.133 871.333 301.92C871.013 301.685 870.725 301.451 870.469 301.216V300.448L873.221 297.632C871.984 296.565 871.365 295.168 871.365 293.44C871.365 292.395 871.61 291.445 872.101 290.592C872.613 289.717 873.349 289.024 874.309 288.512C875.269 288 876.421 287.744 877.765 287.744C878.661 287.744 879.493 287.872 880.261 288.128H886.181V290.368L883.365 290.528C883.877 291.403 884.133 292.373 884.133 293.44C884.133 294.507 883.877 295.467 883.365 296.32C882.874 297.173 882.149 297.856 881.189 298.368C880.25 298.88 879.109 299.136 877.765 299.136ZM877.765 296.48C878.746 296.48 879.536 296.224 880.133 295.712C880.752 295.179 881.061 294.432 881.061 293.472C881.061 292.491 880.752 291.744 880.133 291.232C879.536 290.72 878.746 290.464 877.765 290.464C876.762 290.464 875.952 290.72 875.333 291.232C874.736 291.744 874.437 292.491 874.437 293.472C874.437 294.432 874.736 295.179 875.333 295.712C875.952 296.224 876.762 296.48 877.765 296.48ZM873.509 306.016C873.509 306.933 873.914 307.616 874.725 308.064C875.536 308.533 876.549 308.768 877.765 308.768C878.938 308.768 879.888 308.512 880.613 308C881.338 307.509 881.701 306.848 881.701 306.016C881.701 305.397 881.456 304.864 880.965 304.416C880.474 303.989 879.546 303.723 878.181 303.616C877.157 303.552 876.25 303.456 875.461 303.328C874.714 303.733 874.202 304.171 873.925 304.64C873.648 305.109 873.509 305.568 873.509 306.016ZM897.397 304V281.6H905.845C908.17 281.6 909.93 282.144 911.125 283.232C912.32 284.32 912.917 285.685 912.917 287.328C912.917 288.757 912.533 289.899 911.765 290.752C910.997 291.584 910.069 292.149 908.981 292.448C909.834 292.619 910.592 292.96 911.253 293.472C911.936 293.984 912.469 294.624 912.853 295.392C913.237 296.16 913.429 296.992 913.429 297.888C913.429 299.04 913.141 300.085 912.565 301.024C912.01 301.941 911.189 302.667 910.101 303.2C909.013 303.733 907.68 304 906.101 304H897.397ZM900.789 291.2H905.429C906.73 291.2 907.722 290.901 908.405 290.304C909.088 289.685 909.429 288.843 909.429 287.776C909.429 286.731 909.088 285.899 908.405 285.28C907.744 284.661 906.73 284.352 905.365 284.352H900.789V291.2ZM900.789 301.216H905.653C907.018 301.216 908.074 300.896 908.821 300.256C909.589 299.616 909.973 298.72 909.973 297.568C909.973 296.416 909.578 295.509 908.789 294.848C908 294.165 906.933 293.824 905.589 293.824H900.789V301.216ZM922.395 304.384C921.051 304.384 919.942 304.16 919.067 303.712C918.192 303.264 917.542 302.677 917.115 301.952C916.688 301.205 916.475 300.395 916.475 299.52C916.475 297.984 917.072 296.768 918.267 295.872C919.462 294.976 921.168 294.528 923.387 294.528H927.547V294.24C927.547 293.003 927.206 292.075 926.523 291.456C925.862 290.837 924.998 290.528 923.931 290.528C922.992 290.528 922.171 290.763 921.467 291.232C920.784 291.68 920.368 292.352 920.219 293.248H916.827C916.934 292.096 917.318 291.115 917.979 290.304C918.662 289.472 919.515 288.843 920.539 288.416C921.584 287.968 922.726 287.744 923.963 287.744C926.182 287.744 927.899 288.331 929.115 289.504C930.331 290.656 930.939 292.235 930.939 294.24V304H927.995L927.707 301.28C927.259 302.155 926.608 302.891 925.755 303.488C924.902 304.085 923.782 304.384 922.395 304.384ZM923.067 301.632C923.984 301.632 924.752 301.419 925.371 300.992C926.011 300.544 926.502 299.957 926.843 299.232C927.206 298.507 927.43 297.707 927.515 296.832H923.739C922.395 296.832 921.435 297.067 920.859 297.536C920.304 298.005 920.027 298.592 920.027 299.296C920.027 300.021 920.294 300.597 920.827 301.024C921.382 301.429 922.128 301.632 923.067 301.632ZM934.894 304V280.96H938.286V304H934.894ZM947.958 304.384C946.614 304.384 945.504 304.16 944.63 303.712C943.755 303.264 943.104 302.677 942.678 301.952C942.251 301.205 942.038 300.395 942.038 299.52C942.038 297.984 942.635 296.768 943.83 295.872C945.024 294.976 946.731 294.528 948.95 294.528H953.11V294.24C953.11 293.003 952.768 292.075 952.086 291.456C951.424 290.837 950.56 290.528 949.494 290.528C948.555 290.528 947.734 290.763 947.03 291.232C946.347 291.68 945.931 292.352 945.782 293.248H942.39C942.496 292.096 942.88 291.115 943.542 290.304C944.224 289.472 945.078 288.843 946.102 288.416C947.147 287.968 948.288 287.744 949.526 287.744C951.744 287.744 953.462 288.331 954.678 289.504C955.894 290.656 956.502 292.235 956.502 294.24V304H953.558L953.27 301.28C952.822 302.155 952.171 302.891 951.318 303.488C950.464 304.085 949.344 304.384 947.958 304.384ZM948.63 301.632C949.547 301.632 950.315 301.419 950.934 300.992C951.574 300.544 952.064 299.957 952.406 299.232C952.768 298.507 952.992 297.707 953.078 296.832H949.302C947.958 296.832 946.998 297.067 946.422 297.536C945.867 298.005 945.59 298.592 945.59 299.296C945.59 300.021 945.856 300.597 946.39 301.024C946.944 301.429 947.691 301.632 948.63 301.632ZM960.457 304V288.128H963.465L963.721 290.912C964.211 289.931 964.926 289.163 965.865 288.608C966.825 288.032 967.923 287.744 969.161 287.744C971.081 287.744 972.585 288.341 973.673 289.536C974.782 290.731 975.337 292.512 975.337 294.88V304H971.977V295.232C971.977 292.16 970.718 290.624 968.201 290.624C966.942 290.624 965.897 291.072 965.065 291.968C964.254 292.864 963.849 294.144 963.849 295.808V304H960.457ZM986.852 304.384C985.294 304.384 983.897 304.032 982.66 303.328C981.444 302.624 980.484 301.653 979.78 300.416C979.097 299.157 978.756 297.707 978.756 296.064C978.756 294.421 979.097 292.981 979.78 291.744C980.484 290.485 981.444 289.504 982.66 288.8C983.897 288.096 985.294 287.744 986.852 287.744C988.814 287.744 990.457 288.256 991.78 289.28C993.124 290.304 993.988 291.691 994.372 293.44H990.82C990.606 292.565 990.137 291.883 989.412 291.392C988.686 290.901 987.833 290.656 986.852 290.656C986.02 290.656 985.252 290.869 984.548 291.296C983.844 291.701 983.278 292.309 982.852 293.12C982.425 293.909 982.212 294.891 982.212 296.064C982.212 297.237 982.425 298.229 982.852 299.04C983.278 299.829 983.844 300.437 984.548 300.864C985.252 301.291 986.02 301.504 986.852 301.504C987.833 301.504 988.686 301.259 989.412 300.768C990.137 300.277 990.606 299.584 990.82 298.688H994.372C994.009 300.395 993.156 301.771 991.812 302.816C990.468 303.861 988.814 304.384 986.852 304.384ZM1005.47 304.384C1003.92 304.384 1002.53 304.043 1001.31 303.36C1000.12 302.656 999.181 301.685 998.498 300.448C997.816 299.211 997.474 297.771 997.474 296.128C997.474 294.464 997.805 293.003 998.466 291.744C999.149 290.485 1000.09 289.504 1001.28 288.8C1002.5 288.096 1003.91 287.744 1005.51 287.744C1007.06 287.744 1008.42 288.096 1009.57 288.8C1010.72 289.483 1011.62 290.4 1012.26 291.552C1012.9 292.704 1013.22 293.973 1013.22 295.36C1013.22 295.573 1013.21 295.808 1013.19 296.064C1013.19 296.299 1013.18 296.565 1013.15 296.864H1000.8C1000.91 298.4 1001.41 299.573 1002.31 300.384C1003.22 301.173 1004.28 301.568 1005.47 301.568C1006.43 301.568 1007.23 301.355 1007.87 300.928C1008.54 300.48 1009.03 299.883 1009.35 299.136H1012.74C1012.31 300.629 1011.46 301.877 1010.18 302.88C1008.92 303.883 1007.35 304.384 1005.47 304.384ZM1005.47 290.528C1004.34 290.528 1003.34 290.869 1002.47 291.552C1001.59 292.213 1001.06 293.216 1000.87 294.56H1009.83C1009.76 293.323 1009.32 292.341 1008.51 291.616C1007.7 290.891 1006.69 290.528 1005.47 290.528Z" fill="white"/>
<path d="M747.178 500V477.6H751.178L758.762 492.512L766.314 477.6H770.314V500H766.922V483.456L760.074 496.8H757.45L750.57 483.488V500H747.178ZM780.114 500.384C778.77 500.384 777.66 500.16 776.786 499.712C775.911 499.264 775.26 498.677 774.834 497.952C774.407 497.205 774.194 496.395 774.194 495.52C774.194 493.984 774.791 492.768 775.986 491.872C777.18 490.976 778.887 490.528 781.106 490.528H785.266V490.24C785.266 489.003 784.924 488.075 784.242 487.456C783.58 486.837 782.716 486.528 781.65 486.528C780.711 486.528 779.89 486.763 779.186 487.232C778.503 487.68 778.087 488.352 777.938 489.248H774.546C774.652 488.096 775.036 487.115 775.698 486.304C776.38 485.472 777.234 484.843 778.258 484.416C779.303 483.968 780.444 483.744 781.682 483.744C783.9 483.744 785.618 484.331 786.834 485.504C788.05 486.656 788.658 488.235 788.658 490.24V500H785.714L785.426 497.28C784.978 498.155 784.327 498.891 783.474 499.488C782.62 500.085 781.5 500.384 780.114 500.384ZM780.786 497.632C781.703 497.632 782.471 497.419 783.09 496.992C783.73 496.544 784.22 495.957 784.562 495.232C784.924 494.507 785.148 493.707 785.234 492.832H781.458C780.114 492.832 779.154 493.067 778.578 493.536C778.023 494.005 777.746 494.592 777.746 495.296C777.746 496.021 778.012 496.597 778.546 497.024C779.1 497.429 779.847 497.632 780.786 497.632ZM792.613 500V476.96H796.005V490.688L802.085 484.128H806.149L799.397 491.328L807.141 500H802.853L796.005 491.872V500H792.613ZM815.974 500.384C814.417 500.384 813.03 500.043 811.814 499.36C810.62 498.656 809.681 497.685 808.998 496.448C808.316 495.211 807.974 493.771 807.974 492.128C807.974 490.464 808.305 489.003 808.966 487.744C809.649 486.485 810.588 485.504 811.782 484.8C812.998 484.096 814.406 483.744 816.006 483.744C817.564 483.744 818.918 484.096 820.07 484.8C821.222 485.483 822.118 486.4 822.758 487.552C823.398 488.704 823.718 489.973 823.718 491.36C823.718 491.573 823.708 491.808 823.686 492.064C823.686 492.299 823.676 492.565 823.654 492.864H811.302C811.409 494.4 811.91 495.573 812.806 496.384C813.724 497.173 814.78 497.568 815.974 497.568C816.934 497.568 817.734 497.355 818.374 496.928C819.036 496.48 819.526 495.883 819.846 495.136H823.238C822.812 496.629 821.958 497.877 820.678 498.88C819.42 499.883 817.852 500.384 815.974 500.384ZM815.974 486.528C814.844 486.528 813.841 486.869 812.966 487.552C812.092 488.213 811.558 489.216 811.366 490.56H820.326C820.262 489.323 819.825 488.341 819.014 487.616C818.204 486.891 817.19 486.528 815.974 486.528ZM835.428 500V477.6H843.14C844.911 477.6 846.362 477.899 847.492 478.496C848.644 479.093 849.498 479.904 850.052 480.928C850.607 481.931 850.884 483.051 850.884 484.288C850.884 485.675 850.511 486.933 849.764 488.064C849.039 489.195 847.898 490.005 846.34 490.496L851.108 500H847.172L842.82 490.976H838.82V500H835.428ZM838.82 488.416H842.948C844.484 488.416 845.604 488.043 846.308 487.296C847.034 486.549 847.396 485.579 847.396 484.384C847.396 483.189 847.044 482.24 846.34 481.536C845.636 480.811 844.495 480.448 842.916 480.448H838.82V488.416ZM861.224 500.384C859.667 500.384 858.28 500.043 857.064 499.36C855.87 498.656 854.931 497.685 854.248 496.448C853.566 495.211 853.224 493.771 853.224 492.128C853.224 490.464 853.555 489.003 854.216 487.744C854.899 486.485 855.838 485.504 857.032 484.8C858.248 484.096 859.656 483.744 861.256 483.744C862.814 483.744 864.168 484.096 865.32 484.8C866.472 485.483 867.368 486.4 868.008 487.552C868.648 488.704 868.968 489.973 868.968 491.36C868.968 491.573 868.958 491.808 868.936 492.064C868.936 492.299 868.926 492.565 868.904 492.864H856.552C856.659 494.4 857.16 495.573 858.056 496.384C858.974 497.173 860.03 497.568 861.224 497.568C862.184 497.568 862.984 497.355 863.624 496.928C864.286 496.48 864.776 495.883 865.096 495.136H868.488C868.062 496.629 867.208 497.877 865.928 498.88C864.67 499.883 863.102 500.384 861.224 500.384ZM861.224 486.528C860.094 486.528 859.091 486.869 858.216 487.552C857.342 488.213 856.808 489.216 856.616 490.56H865.576C865.512 489.323 865.075 488.341 864.264 487.616C863.454 486.891 862.44 486.528 861.224 486.528ZM885.288 507.04V497.536C884.776 498.283 884.072 498.944 883.176 499.52C882.28 500.096 881.128 500.384 879.72 500.384C878.184 500.384 876.829 500.021 875.656 499.296C874.482 498.571 873.565 497.579 872.904 496.32C872.242 495.061 871.912 493.632 871.912 492.032C871.912 490.432 872.242 489.013 872.904 487.776C873.565 486.517 874.482 485.536 875.656 484.832C876.85 484.107 878.216 483.744 879.752 483.744C881.01 483.744 882.109 483.989 883.048 484.48C884.008 484.971 884.754 485.664 885.288 486.56L885.64 484.128H888.68V507.04H885.288ZM880.328 497.44C881.778 497.44 882.962 496.939 883.88 495.936C884.818 494.933 885.288 493.643 885.288 492.064C885.288 490.464 884.818 489.173 883.88 488.192C882.962 487.189 881.778 486.688 880.328 486.688C878.877 486.688 877.682 487.189 876.744 488.192C875.805 489.173 875.336 490.464 875.336 492.064C875.336 493.109 875.549 494.037 875.976 494.848C876.402 495.659 876.989 496.299 877.736 496.768C878.504 497.216 879.368 497.44 880.328 497.44ZM898.812 500.384C896.893 500.384 895.378 499.787 894.269 498.592C893.181 497.397 892.637 495.616 892.637 493.248V484.128H896.029V492.896C896.029 495.968 897.287 497.504 899.805 497.504C901.063 497.504 902.098 497.056 902.909 496.16C903.719 495.264 904.125 493.984 904.125 492.32V484.128H907.517V500H904.509L904.253 497.216C903.762 498.197 903.037 498.976 902.077 499.552C901.138 500.107 900.05 500.384 898.812 500.384ZM919.256 500.384C917.698 500.384 916.312 500.043 915.096 499.36C913.901 498.656 912.962 497.685 912.28 496.448C911.597 495.211 911.256 493.771 911.256 492.128C911.256 490.464 911.586 489.003 912.248 487.744C912.93 486.485 913.869 485.504 915.064 484.8C916.28 484.096 917.688 483.744 919.288 483.744C920.845 483.744 922.2 484.096 923.352 484.8C924.504 485.483 925.4 486.4 926.04 487.552C926.68 488.704 927 489.973 927 491.36C927 491.573 926.989 491.808 926.968 492.064C926.968 492.299 926.957 492.565 926.936 492.864H914.584C914.69 494.4 915.192 495.573 916.088 496.384C917.005 497.173 918.061 497.568 919.256 497.568C920.216 497.568 921.016 497.355 921.656 496.928C922.317 496.48 922.808 495.883 923.128 495.136H926.52C926.093 496.629 925.24 497.877 923.96 498.88C922.701 499.883 921.133 500.384 919.256 500.384ZM919.256 486.528C918.125 486.528 917.122 486.869 916.248 487.552C915.373 488.213 914.84 489.216 914.648 490.56H923.608C923.544 489.323 923.106 488.341 922.296 487.616C921.485 486.891 920.472 486.528 919.256 486.528ZM936.855 500.384C934.85 500.384 933.196 499.893 931.895 498.912C930.594 497.931 929.847 496.629 929.655 495.008H933.079C933.25 495.733 933.655 496.363 934.295 496.896C934.935 497.408 935.778 497.664 936.823 497.664C937.847 497.664 938.594 497.451 939.063 497.024C939.532 496.597 939.767 496.107 939.767 495.552C939.767 494.741 939.436 494.197 938.775 493.92C938.135 493.621 937.239 493.355 936.087 493.12C935.191 492.928 934.295 492.672 933.399 492.352C932.524 492.032 931.788 491.584 931.191 491.008C930.615 490.411 930.327 489.611 930.327 488.608C930.327 487.221 930.86 486.069 931.927 485.152C932.994 484.213 934.487 483.744 936.407 483.744C938.178 483.744 939.607 484.171 940.695 485.024C941.804 485.877 942.455 487.083 942.647 488.64H939.383C939.276 487.957 938.956 487.424 938.423 487.04C937.911 486.656 937.218 486.464 936.343 486.464C935.49 486.464 934.828 486.645 934.359 487.008C933.89 487.349 933.655 487.797 933.655 488.352C933.655 488.907 933.975 489.344 934.615 489.664C935.276 489.984 936.14 490.272 937.207 490.528C938.274 490.763 939.255 491.04 940.151 491.36C941.068 491.659 941.804 492.107 942.359 492.704C942.914 493.301 943.191 494.176 943.191 495.328C943.212 496.779 942.647 497.984 941.495 498.944C940.364 499.904 938.818 500.384 936.855 500.384ZM952.956 500C951.399 500 950.162 499.627 949.244 498.88C948.327 498.112 947.868 496.757 947.868 494.816V486.976H945.148V484.128H947.868L948.284 480.096H951.26V484.128H955.74V486.976H951.26V494.816C951.26 495.691 951.442 496.299 951.804 496.64C952.188 496.96 952.839 497.12 953.756 497.12H955.58V500H952.956Z" fill="white"/>
<path d="M640 0L640 685" stroke="#37445B" stroke-width="3"/>
<path d="M1.5 685L16.5 693.66V676.34L1.5 685ZM1281.5 685L1266.5 676.34V693.66L1281.5 685ZM15 686.5H1268V683.5H15V686.5Z" fill="#37445B"/>
</svg>
