<svg width="43" height="43" viewBox="0 0 43 43" fill="none" xmlns="http://www.w3.org/2000/svg">
<circle cx="21.5" cy="21.5" r="21.5" fill="#0966FF"/>
<path d="M25.8577 19.5773L15.7782 29.6569C15.1924 30.2426 14.2426 30.2426 13.6569 29.6569C13.0711 29.0711 13.0711 28.1213 13.6569 27.5355L23.617 17.5754C24.247 16.9454 23.8008 15.8683 22.9099 15.8683L20.3516 15.8683C19.5831 15.8683 18.9602 15.2453 18.9602 14.4769C18.9602 13.6908 19.6108 13.0608 20.3964 13.0862L28.1022 13.3347C29.133 13.368 29.9694 14.1796 30.0338 15.209L30.5341 23.2145C30.5847 24.0234 29.9423 24.7071 29.1319 24.7071C28.3847 24.7071 27.7682 24.1222 27.7289 23.376L27.5635 20.2319C27.5179 19.3673 26.4699 18.9651 25.8577 19.5773Z" fill="white"/>
</svg>
